<svg width="7" height="7" viewBox="0 0 7 7" fill="none" xmlns="http://www.w3.org/2000/svg">
<mask id="path-1-inside-1_725_432" fill="white">
<path d="M3.47212 3.71701C4.48266 3.71701 5.29309 2.89657 5.29309 1.89604C5.29309 0.895505 4.48266 0.0650635 3.47212 0.0650635C2.46159 0.0650635 1.65115 0.8855 1.65115 1.88603C1.65115 2.88656 2.46159 3.71701 3.47212 3.71701ZM3.47212 0.545319C4.21252 0.545319 4.81284 1.14564 4.81284 1.88603C4.81284 2.62643 4.21252 3.22675 3.47212 3.22675C2.73173 3.22675 2.13141 2.63643 2.13141 1.89604C2.13141 1.15564 2.73173 0.545319 3.47212 0.545319ZM0.31044 6.56852H6.65382C6.78389 6.56852 6.89394 6.45847 6.89394 6.3284C6.89394 5.06773 5.8634 4.03718 4.60273 4.03718H2.36153C1.10086 4.03718 0.0703125 5.06773 0.0703125 6.3284C0.0703125 6.45847 0.180371 6.56852 0.31044 6.56852ZM2.36153 4.51743H4.60273C5.52321 4.51743 6.27361 5.19779 6.39368 6.08827H0.570579C0.690643 5.19779 1.44104 4.51743 2.36153 4.51743Z"/>
</mask>
<path d="M3.47212 3.71701C4.48266 3.71701 5.29309 2.89657 5.29309 1.89604C5.29309 0.895505 4.48266 0.0650635 3.47212 0.0650635C2.46159 0.0650635 1.65115 0.8855 1.65115 1.88603C1.65115 2.88656 2.46159 3.71701 3.47212 3.71701ZM3.47212 0.545319C4.21252 0.545319 4.81284 1.14564 4.81284 1.88603C4.81284 2.62643 4.21252 3.22675 3.47212 3.22675C2.73173 3.22675 2.13141 2.63643 2.13141 1.89604C2.13141 1.15564 2.73173 0.545319 3.47212 0.545319ZM0.31044 6.56852H6.65382C6.78389 6.56852 6.89394 6.45847 6.89394 6.3284C6.89394 5.06773 5.8634 4.03718 4.60273 4.03718H2.36153C1.10086 4.03718 0.0703125 5.06773 0.0703125 6.3284C0.0703125 6.45847 0.180371 6.56852 0.31044 6.56852ZM2.36153 4.51743H4.60273C5.52321 4.51743 6.27361 5.19779 6.39368 6.08827H0.570579C0.690643 5.19779 1.44104 4.51743 2.36153 4.51743Z" fill="#F2F3FD"/>
<path d="M6.39368 6.08827V7.08827H7.53756L7.38471 5.95465L6.39368 6.08827ZM0.570579 6.08827L-0.420454 5.95465L-0.573302 7.08827H0.570579V6.08827ZM3.47212 4.71701C5.03852 4.71701 6.29309 3.44527 6.29309 1.89604H4.29309C4.29309 2.34787 3.9268 2.71701 3.47212 2.71701V4.71701ZM6.29309 1.89604C6.29309 0.353944 5.04561 -0.934937 3.47212 -0.934937V1.06506C3.91971 1.06506 4.29309 1.43707 4.29309 1.89604H6.29309ZM3.47212 -0.934937C1.90573 -0.934937 0.651154 0.336797 0.651154 1.88603H2.65115C2.65115 1.4342 3.01744 1.06506 3.47212 1.06506V-0.934937ZM0.651154 1.88603C0.651154 3.42813 1.89864 4.71701 3.47212 4.71701V2.71701C3.02453 2.71701 2.65115 2.345 2.65115 1.88603H0.651154ZM3.47212 1.54532C3.66023 1.54532 3.81284 1.69792 3.81284 1.88603H5.81284C5.81284 0.593354 4.7648 -0.454681 3.47212 -0.454681V1.54532ZM3.81284 1.88603C3.81284 2.07414 3.66023 2.22675 3.47212 2.22675V4.22675C4.7648 4.22675 5.81284 3.17871 5.81284 1.88603H3.81284ZM3.47212 2.22675C3.27422 2.22675 3.13141 2.0744 3.13141 1.89604H1.13141C1.13141 3.19846 2.18924 4.22675 3.47212 4.22675V2.22675ZM3.13141 1.89604C3.13141 1.69823 3.29366 1.54532 3.47212 1.54532V-0.454681C2.1698 -0.454681 1.13141 0.613053 1.13141 1.89604H3.13141ZM0.31044 7.56852H6.65382V5.56852H0.31044V7.56852ZM6.65382 7.56852C7.33617 7.56852 7.89394 7.01075 7.89394 6.3284H5.89394C5.89394 5.90618 6.2316 5.56852 6.65382 5.56852V7.56852ZM7.89394 6.3284C7.89394 4.51544 6.41568 3.03718 4.60273 3.03718V5.03718C5.31111 5.03718 5.89394 5.62001 5.89394 6.3284H7.89394ZM4.60273 3.03718H2.36153V5.03718H4.60273V3.03718ZM2.36153 3.03718C0.548576 3.03718 -0.929688 4.51544 -0.929688 6.3284H1.07031C1.07031 5.62001 1.65315 5.03718 2.36153 5.03718V3.03718ZM-0.929688 6.3284C-0.929688 7.01075 -0.371915 7.56852 0.31044 7.56852V5.56852C0.732657 5.56852 1.07031 5.90618 1.07031 6.3284H-0.929688ZM2.36153 5.51743H4.60273V3.51743H2.36153V5.51743ZM4.60273 5.51743C5.01103 5.51743 5.34792 5.81604 5.40265 6.22189L7.38471 5.95465C7.1993 4.57954 6.0354 3.51743 4.60273 3.51743V5.51743ZM6.39368 5.08827H0.570579V7.08827H6.39368V5.08827ZM1.56161 6.22189C1.61633 5.81604 1.95323 5.51743 2.36153 5.51743V3.51743C0.928856 3.51743 -0.235047 4.57954 -0.420454 5.95465L1.56161 6.22189Z" fill="white" mask="url(#path-1-inside-1_725_432)"/>
</svg>
