<svg width="153" height="48" viewBox="0 0 153 48" fill="none" xmlns="http://www.w3.org/2000/svg">
<path d="M107.182 3.68584C107.182 3.68584 104.314 4.82778 100.978 8.50487C97.6425 12.182 95.6998 16.3168 97.1375 17.4165C97.6897 17.8344 98.9633 17.914 101.274 15.8242C103.407 13.9723 105.081 11.6508 106.164 9.04225C107.657 5.40248 107.182 3.73062 107.182 3.69082M125.437 10.3011C121.731 8.40038 119.022 6.07172 116.204 4.63124C113.515 3.25046 111.776 2.67327 109.602 2.96436C109.299 3.01843 109 3.09324 108.707 3.18827C108.707 3.18827 109.826 7.01214 105.371 13.4359C100.859 19.9491 96.7644 19.9043 95.6003 18.1156C94.3815 16.2273 95.956 12.3785 98.5852 8.95269C101.339 5.37014 106.174 2.39961 106.174 2.39961C106.174 2.39961 104.632 1.4567 100.846 3.60374C97.1525 5.68859 90.7946 10.6644 84.8944 19.056C78.9943 27.4476 77.8252 32.0651 76.9795 35.6999C76.1338 39.3347 76.9024 43.2282 80.932 43.2282C84.9616 43.2282 89.6529 37.0807 90.9762 34.9436C93.4362 30.963 95.0406 24.8577 91.6926 25.6961C90.0434 26.1091 88.7077 27.9352 87.8644 29.6942C87.3321 30.8239 86.925 32.0086 86.6506 33.227C85.4806 33.7092 84.3819 34.3487 83.3846 35.1277C82.2752 35.9496 81.2383 36.8652 80.2853 37.8644C80.2853 37.8644 80.3002 34.9585 82.616 30.2564C84.9318 25.5543 89.1828 23.4073 91.5906 23.2058C93.7596 23.0316 96.5828 24.8726 94.1899 31.6646C91.797 38.4565 84.7377 46.7138 77.3227 46.8158C70.4799 46.9103 66.0025 38.1754 75.5268 22.9321C86.0685 6.09162 98.4335 0.924294 102.448 0.349593C106.463 -0.225108 107.769 1.54626 107.769 1.54626C110.185 0.554607 112.796 0.124185 115.403 0.287396C120.305 0.618284 124.096 4.08888 129.101 6.527C127.8 7.77095 126.559 9.07708 125.439 10.3011M147.463 4.63124C144.065 6.81062 139.364 8.786 134.847 8.36306C133.703 9.54481 132.479 10.9131 131.252 12.4059C139.085 13.9558 145.948 9.10196 149.597 4.96959C150.927 3.48385 152.07 1.84033 153 0.0759258C151.339 1.80661 149.479 3.33558 147.461 4.63124M137.031 26.7037C137.09 26.6004 137.138 26.4912 137.175 26.3778C137.152 26.1984 137.068 26.0324 136.937 25.9074C136.806 25.7825 136.636 25.7062 136.456 25.6912C135.71 25.6563 134.693 25.7981 132.024 28.7537C129.809 31.1945 127.904 33.8984 126.35 36.8045C124.823 39.5959 124.203 41.6758 125.081 42.2132C125.366 42.361 125.697 42.3948 126.007 42.3077C126.601 42.1659 127.275 41.6086 128.3 40.4219C128.78 39.8646 129.312 39.076 129.949 38.2027C131.715 35.7994 136.153 28.2338 137.031 26.7037ZM109.306 29.9181C109.751 28.7537 110.318 26.4674 109.139 25.5693C107.873 24.6164 104.645 26.853 104.627 29.1468C104.605 31.4954 106.901 32.5577 107.45 32.707C107.764 32.7916 107.873 32.7791 108.025 32.5279C108.512 31.6887 108.94 30.8166 109.306 29.9181ZM106.863 34.1898C106.063 33.8202 105.317 33.3441 104.645 32.7742C103.97 32.2085 103.407 31.5227 102.983 30.7515C102.938 30.6769 102.893 30.7341 102.844 30.8013C102.794 30.8684 102.595 31.0501 100.874 33.5728C99.1523 36.0955 96.5082 41.3225 98.9011 42.2132C100.433 42.7829 102.983 40.0985 104.373 38.3197C105.321 37.078 106.179 35.7711 106.943 34.4087C107.015 34.2569 106.943 34.2221 106.866 34.1898M134.009 40.2279C133.359 41.2678 132.618 43.2631 134.755 42.0216C137.369 40.5115 141.093 34.8615 141.093 34.8615H142.782C141.245 37.2249 139.534 39.4703 137.663 41.5788C135.013 44.5145 131.782 47.1815 129.506 46.9178C126.847 46.6068 127.681 43.1163 127.681 43.1163C127.681 43.1163 123.877 47.1666 121.246 46.8755C117.691 46.4824 118.776 42.0888 118.776 42.0888C118.776 42.0888 114.756 47.0223 112.017 46.8705C107.724 46.6217 108.804 41.3972 109.997 37.7176C110.637 35.7497 111.229 34.2047 111.229 34.2047C111.229 34.2047 110.803 34.3166 109.888 34.4535C109.41 34.5207 108.54 34.5704 108.54 34.5704C108.54 34.5704 106.751 37.725 105.321 39.6208C103.891 41.5166 97.8116 48.0522 94.2347 46.7436C90.9264 45.5345 92.0209 40.4692 93.9462 36.4438C96.757 30.5749 104.662 22.1434 109.221 23.258C113.948 24.4049 109.328 33.0304 109.328 33.0304C109.328 33.0304 109.328 33.0628 109.378 33.0851C109.473 33.12 109.719 33.1473 110.289 33.0354C110.879 32.915 111.457 32.7426 112.017 32.5204C112.017 32.5204 116.768 22.5689 122.017 16.0581C127.265 9.54729 137.735 -1.66559 141.844 1.0462C142.839 1.71295 142.391 4.00927 141.038 6.7957C140.429 6.9937 139.809 7.15979 139.182 7.29327C140.088 5.64878 140.687 4.26303 140.866 3.29525C141.486 -0.0683716 133.633 7.02707 128.021 14.6499C124.641 19.2454 121.638 24.1069 119.042 29.1866C120.055 28.5683 121.023 27.8773 121.937 27.1192C124.44 25.0434 126.819 22.822 129.061 20.4666C131.22 18.2559 133.245 15.9181 135.125 13.4657C135.723 13.4368 136.318 13.3754 136.909 13.2816C134.859 16.0646 132.623 18.7061 130.218 21.1881C127.979 23.4521 125.556 25.8877 123.452 27.6566C121.572 29.2553 119.59 30.7288 117.517 32.0676C117.517 32.0676 112.609 41.9669 115.278 42.6013C116.848 42.9795 119.947 38.2052 119.947 38.2052C119.947 38.2052 123.992 32.0328 126.429 29.2488C129.755 25.4673 132.618 23.2779 135.479 23.2381C137.145 23.2083 138.128 24.9796 138.128 24.9796L138.911 23.7655H143.737C143.737 23.7655 134.725 39.061 134.004 40.2129M147.461 4.63124C144.063 6.81062 139.361 8.786 134.844 8.36306C133.7 9.54481 132.476 10.9131 131.25 12.4059C139.083 13.9558 145.946 9.10196 149.595 4.96959C150.926 3.48399 152.07 1.84046 153 0.0759258C151.339 1.80661 149.479 3.33558 147.461 4.63124ZM79.6908 12.1347H75.1015L72.5071 16.3268H77.0964L79.6908 12.1347ZM57.9607 26.6515C59.9133 23.9745 65.301 14.5927 65.301 14.5927C65.2783 14.4135 65.1948 14.2475 65.0644 14.1226C64.934 13.9976 64.7646 13.9212 64.5847 13.9061C63.8384 13.8712 62.5947 14.1225 60.1247 17.2149C57.6547 20.3074 55.7369 22.7679 54.339 25.3279C52.8067 28.1218 52.1376 30.0922 53.0182 30.6271C53.3039 30.7703 53.6322 30.8039 53.941 30.7217C54.5131 30.5774 55.2618 30.0027 56.2891 28.8209C56.7717 28.2686 57.3189 27.5247 57.9607 26.6515ZM33.3352 13.9633C32.0666 13.0054 28.8405 15.247 28.823 17.5359C28.8031 19.8869 31.7259 20.6059 32.104 20.6233C32.2152 20.6326 32.3267 20.6093 32.4248 20.5562C32.4923 20.5168 32.5461 20.4578 32.5791 20.387C32.9227 19.7116 33.2315 19.0191 33.5044 18.3121C33.9496 17.1478 34.5143 14.8614 33.3352 13.9633ZM31.4224 22.0564C30.5477 21.783 29.7117 21.3984 28.935 20.9119C28.1823 20.4212 27.5703 19.743 27.159 18.944C27.1142 18.8694 27.0644 18.9266 27.0197 18.9938C26.9749 19.061 26.7162 19.3844 24.9899 21.917C23.2637 24.4497 20.7066 29.6295 23.102 30.5201C24.6293 31.0998 27.2087 28.393 28.6091 26.6216C29.6571 25.2296 30.6254 23.7793 31.5095 22.2778C31.5667 22.126 31.5095 22.0912 31.4249 22.0638M68.9053 23.6163H70.5868C70.5868 23.6163 62.1619 35.8069 57.4035 35.2397C54.7469 34.9287 55.5354 31.6496 55.5354 31.6496C55.5354 31.6496 51.8043 36.0184 48.3766 35.1327C45.2674 34.3341 47.2747 29.1618 47.2747 29.1618C46.9215 29.3036 40.193 36.8891 35.4645 35.0705C30.517 33.1598 33.0865 26.8082 34.0267 24.8975C34.8252 23.2879 35.7082 21.7205 35.7082 21.7205C35.7082 21.7205 34.9496 21.9345 34.4645 22.0439C33.9795 22.1534 33.278 22.2927 33.278 22.2927C33.278 22.2927 30.9374 26.0967 29.5071 27.9949C28.0768 29.8932 21.9976 36.4164 18.4157 35.1177C14.8338 33.8191 15.7218 28.806 17.7341 24.8254C20.9976 18.3693 28.741 10.4355 33.4049 11.6396C38.116 12.8412 34.2158 20.484 34.2158 20.484C34.2158 20.484 35.1535 20.6059 37.3997 19.0734C40.6333 16.8666 44.9017 10.9306 49.5233 11.6272C51.7023 11.9556 53.7321 14.1822 50.9561 18.4116C50.0706 19.77 48.5856 20.9841 47.4488 19.7824C46.7399 19.0361 47.3593 17.6752 48.103 16.7447C48.3925 16.3654 48.7708 16.0631 49.2045 15.8644C49.6383 15.6657 50.1142 15.5767 50.5905 15.6053C50.5905 15.6053 51.3541 13.8638 49.4114 13.8886C47.8394 13.9185 43.8595 17.5832 41.6134 21.2851C39.5538 24.6836 36.4321 30.4729 39.5662 31.7342C42.4392 32.8936 47.9065 26.4027 50.4387 23.0018C52.9709 19.6008 58.7417 11.8934 63.5822 11.5849C65.2488 11.4754 66.2413 12.9955 66.2413 12.9955L66.801 12.1098H71.6415C71.6415 12.1098 62.5251 27.3257 61.8137 28.4776C61.254 29.3782 60.5103 31.4033 62.5599 30.2689C64.6095 29.1344 68.9053 23.6163 68.9053 23.6163ZM66.2711 47.9975C62.7071 45.5299 58.4393 44.2842 54.1077 44.4473C52.9352 44.4793 51.7869 44.7872 50.7557 45.3461C49.7245 45.905 48.8396 46.6992 48.1727 47.6641C46.327 44.4423 42.678 42.4645 37.0365 42.5092C27.9201 42.6137 18.8783 46.8183 11.7146 46.8133C4.8493 46.8133 -0.157876 42.4968 0.00380584 34.8316C0.304784 21.3797 11.6698 9.26616 20.1519 3.81521C25.0422 0.682969 29.1315 -0.247499 31.8055 0.0535349C33.7556 0.269981 36.1012 2.524 34.6212 5.84532C32.4472 10.6992 29.4449 10.3011 29.5568 7.97993C29.619 6.46978 30.6239 5.51941 31.3801 4.99447C31.8602 4.66358 32.7084 4.56904 33.1512 4.55909C33.5815 4.19586 33.8974 1.5388 30.415 2.41205C26.9326 3.28529 22.704 6.71857 18.6893 11.1545C14.6746 15.5904 8.42372 23.9745 6.87903 32.7791C6.15768 36.8618 6.63029 44.308 16.3088 44.2234C24.5173 44.1562 36.6161 38.7501 47.7349 38.862C52.0506 38.9043 55.8066 40.0686 58.7343 41.8748C61.6097 43.6462 65.0573 46.2336 66.2811 48" fill="#5B5B5B"/>
</svg>
