<svg width="265" height="48" viewBox="0 0 265 48" fill="none" xmlns="http://www.w3.org/2000/svg">
<g clip-path="url(#clip0_20_2)">
<path d="M78.2769 19.0641C77.0538 18.0226 75.4684 17.2981 73.7017 17.2981C72.4786 17.2981 70.8932 18.0226 70.8932 19.4264C70.8932 21.0113 72.6598 21.5547 73.8829 21.9169L75.6496 22.4603C79.3641 23.5019 82.1726 25.2679 82.1726 29.5245C82.1726 32.1509 81.4479 34.8226 79.5453 36.5886C77.4162 38.3547 74.7889 39.0792 72.1162 39.0792C68.7641 39.0792 65.5932 38.0377 62.9205 36.0905L65.7291 30.6113C67.4957 32.0151 69.4436 33.2377 71.7085 33.2377C73.294 33.2377 75.0607 32.3773 75.0607 30.6113C75.0607 28.6641 72.4333 27.9849 70.9837 27.6226C66.7256 26.4 63.9171 25.3132 63.9171 20.1962C63.9171 14.8981 67.6316 11.366 72.9316 11.366C75.559 11.366 78.7752 12.2264 81.0402 13.4943L78.2769 19.0641ZM97.1667 27.0339C96.8043 25.2679 95.2188 24.2264 93.6333 24.2264C91.8667 24.2264 90.2812 25.2679 89.9188 27.0339H97.1667ZM103.01 30.566H89.7376C89.7376 33.1924 91.1419 34.6415 93.6333 34.6415C95.0376 34.6415 95.9436 34.2792 96.6231 33.0566H102.603C101.561 37.449 97.6649 39.2151 93.588 39.2151C87.7444 39.2151 83.3504 35.8641 83.3504 29.7056C83.3504 23.7283 87.4273 20.1962 93.2256 20.1962C99.3863 20.1962 102.92 24.0905 102.92 30.0679V30.566H103.01ZM110.756 24.3622C112.161 21.7358 114.109 21.0113 116.6 21.0113H117.823V26.9886C116.781 26.4453 116.056 26.4452 115.196 26.4452C111.662 26.4452 110.802 28.7547 110.802 31.7434V38.9886H104.596V21.1471H110.756V24.3622ZM128.061 30.2037L132.319 21.1924H139.385L130.009 38.8528H125.932L116.736 21.1924H123.803L128.061 30.2037ZM146.407 38.8528H139.884V21.0113H146.407V38.8528ZM146.769 15.0339C146.769 16.9811 145.184 18.566 143.236 18.566C141.288 18.566 139.703 16.9811 139.703 15.0339C139.703 13.0868 141.288 11.5018 143.236 11.5018C145.184 11.5018 146.769 13.0868 146.769 15.0339ZM162.488 26.4905C161.446 25.766 160.359 25.2679 159.136 25.2679C156.644 25.2679 154.742 27.2151 154.742 29.6603C154.742 32.2868 156.69 34.0528 159.136 34.0528C160.178 34.0528 161.265 33.5094 162.307 32.8302V38.1283C160.721 38.8528 159.317 39.1698 157.913 39.1698C152.613 39.1698 148.219 35.2754 148.219 29.8415C148.219 24.1811 152.613 20.1509 158.275 20.1509C159.679 20.1509 161.265 20.5132 162.533 21.1924V26.4905H162.488ZM177.844 27.0339C177.482 25.2679 175.897 24.2264 174.311 24.2264C172.544 24.2264 170.959 25.2679 170.597 27.0339H177.844ZM183.643 30.566H170.415C170.415 33.1924 171.82 34.6415 174.311 34.6415C175.715 34.6415 176.621 34.2792 177.301 33.0566H183.28C182.238 37.449 178.343 39.2151 174.266 39.2151C168.422 39.2151 164.028 35.8641 164.028 29.7056C164.028 23.7283 168.105 20.1962 173.903 20.1962C180.064 20.1962 183.597 24.0905 183.597 30.0679V30.566H183.643ZM196.191 38.8528H189.668V18.566H183.824V12.9056H201.808V18.566H196.145V38.8528H196.191ZM209.599 38.8528H203.257V21.0113H209.599V38.8528ZM209.962 15.0339C209.962 16.9811 208.376 18.566 206.428 18.566C204.48 18.566 202.895 16.9811 202.895 15.0339C202.895 13.0868 204.48 11.5018 206.428 11.5018C208.376 11.5018 209.962 13.0868 209.962 15.0339ZM219.837 38.8528H213.495V26.3094H211.547V21.1924H213.495V15.7132H219.837V21.1924H223.37V26.3094H219.837V38.8528ZM229.712 30.0226C229.712 32.332 231.116 34.0981 233.789 34.0981C236.416 34.0981 237.866 32.332 237.866 30.0226C237.866 27.8943 236.462 25.9471 233.789 25.9471C231.297 25.9471 229.712 27.8943 229.712 30.0226ZM244.026 38.8528H237.685V36.9056C236.643 38.6717 234.332 39.532 232.385 39.532C227.085 39.532 223.37 35.1396 223.37 30.0226C223.37 24.9056 227.085 20.5132 232.203 20.5132C234.332 20.5132 236.28 21.2377 237.685 22.8226V21.0566H244.026V38.8528ZM252.316 23.5018C253.902 21.3735 255.668 20.6943 258.16 20.6943C262.916 20.6943 264.864 23.683 264.864 28.1207V39.0792H258.522V30.4302C258.522 28.6641 258.885 25.8566 255.714 25.8566C253.086 25.8566 252.362 27.8037 252.362 29.932V39.1245H246.02V21.283H252.362V23.5018H252.316ZM268.035 20.1509V20.8754H268.579C268.941 20.8754 269.62 20.8754 269.62 20.5132C269.62 20.1509 269.258 20.1509 268.896 20.1509H268.035ZM269.938 22.7773H269.394L268.669 21.3736H267.944V22.7773H267.582V19.6075H268.805C269.349 19.6075 269.847 19.7887 269.847 20.4679C269.847 21.0113 269.485 21.3283 268.986 21.3283L269.938 22.7773ZM266.45 21.1924C266.45 22.4151 267.491 23.5018 268.76 23.5018C269.983 23.5018 271.07 22.4603 271.07 21.1924C271.07 19.9698 270.028 18.883 268.76 18.883C267.491 18.9283 266.45 19.7886 266.45 21.1924ZM265.906 21.1924C265.906 19.6075 267.129 18.3849 268.715 18.3849C270.3 18.3849 271.523 19.6075 271.523 21.1924C271.523 22.7773 270.3 24 268.715 24C267.129 23.8641 265.906 22.5962 265.906 21.1924ZM4.16751 43.0641C4.16751 43.0641 6.79487 44.1056 6.79487 45.1924C6.79487 45.1924 6.61367 46.0528 5.75298 46.0528C4.8923 46.0528 3.62393 44.649 3.62393 43.9245C3.62393 43.2 4.16751 43.0641 4.16751 43.0641ZM1.35897 29.8415C1.17777 29.8415 1.17777 29.6603 1.35897 29.8415C1.17777 29.6603 1.17777 29.6603 1.17777 29.6603C0.634185 29.8415 -0.226501 30.5207 -0.226501 31.7887C-0.226501 36.5434 12.6385 37.0868 19.7051 45.7358C20.4299 46.5962 21.653 47.1396 22.8761 47.1396C24.4615 47.1396 26.047 46.9585 27.4513 46.7773C27.6325 46.7773 27.8137 46.5962 27.8137 46.4151C27.8137 46.2339 27.8137 46.0528 27.8137 45.8717C19.1615 34.0981 2.76324 36.9056 1.35897 29.8415ZM19.8863 14.8528C19.0256 13.9924 16.7154 14.6717 15.4923 15.7132C14.2692 16.7547 14.7675 17.4792 14.7675 17.4792C15.8094 16.0754 17.3949 15.3509 18.482 15.1698C19.3427 15.2151 19.8863 14.8528 19.8863 14.8528ZM46.341 17.2981C46.341 17.2981 44.5744 17.6603 42.9889 15.8943C42.9889 15.8943 43.7137 15.8943 43.8496 15.0339C43.7137 15.0339 44.7555 16.9811 46.341 17.2981ZM45.7974 25.449C45.7974 25.449 45.435 27.3962 43.1701 27.3962C40.6786 27.3962 38.5949 24.0453 37.8701 16.1207C38.4137 16.9811 39.0932 17.8868 39.4555 18.9283C39.4555 17.8868 39.9991 15.9396 37.5077 14.1736C37.5077 14.1736 44.0308 15.5773 44.212 22.2792C44.212 23.5019 43.4872 24.5886 43.1701 25.0868C43.1701 25.0868 42.8077 25.2679 42.9889 25.8113C43.1701 26.1736 43.7137 26.1736 44.212 25.6302C44.7102 25.0868 45.7974 24.3622 45.7974 25.449ZM36.647 29.1169C36.647 29.1169 34.8803 32.4679 32.3889 32.4679C31.347 32.4679 30.6222 31.7434 30.6222 30.883C30.6222 30.0226 31.8453 26.4905 36.9641 26.4905C38.1872 26.4905 39.0932 26.6717 39.0932 27.532C39.2744 28.0754 38.0513 29.2981 36.647 29.1169ZM36.647 12.3622C36.647 12.3622 35.9222 12.1811 36.1034 11.1396C36.2846 10.7773 36.2846 10.7773 36.2846 10.2792C36.2846 9.73581 36.4658 9.2377 36.8282 9.05657C36.8282 9.05657 37.553 9.05657 37.553 11.0037C37.5077 11.8641 36.647 12.3622 36.647 12.3622ZM34.3367 12.3622C33.2949 12.1811 33.9744 10.5962 33.2949 10.5962C32.9325 10.5962 32.9325 12.3622 32.5701 12.1811C31.8453 11.6377 32.3889 10.4151 32.3889 9.87167C32.3889 9.32827 32.7513 8.64902 32.2077 9.01128C31.6641 9.37355 31.347 10.2339 31.1658 10.9585C30.9846 11.683 31.347 12 31.7094 12.9056C32.0718 13.766 31.5282 13.449 31.5282 13.449C28.9008 11.8641 30.8034 8.33204 30.8034 8.33204C32.0265 6.38487 33.7932 6.92827 33.7932 6.92827C34.1555 7.1094 34.1555 7.29053 34.1555 7.65279C34.1555 8.01506 34.3367 8.19619 34.6991 8.37732C35.2427 8.55846 35.4239 9.10185 35.4239 10.1434C35.4239 11.3207 34.6991 12.5434 34.3367 12.3622ZM38.4137 12.1811L42.8077 13.5849C42.8077 13.5849 43.6684 15.1698 41.947 14.6264C40.3615 14.083 38.7761 13.766 38.7761 13.766C38.7761 13.766 38.0513 13.2679 38.4137 12.1811ZM16.7154 18.883C13.5444 19.4264 12.4573 18.5207 12.4573 17.6603C12.4573 15.1698 19.7051 13.2679 21.653 13.2679C22.0154 13.8113 21.2906 13.8113 21.1094 14.6717C20.747 15.532 20.0675 15.8943 18.9803 16.0754C17.9385 16.2566 16.8513 16.8 16.1718 17.2981C15.447 17.8415 16.1718 18.1585 17.3949 17.8415C18.6179 17.4792 18.7991 18.0226 19.3427 17.8415C19.8863 17.6603 19.3427 16.9811 19.7051 16.9811C20.0675 16.8 20.747 17.3434 20.747 17.3434L22.5137 18.566L20.3846 19.6075C20.2034 19.6075 20.0222 19.7886 20.0222 20.1509C20.0222 20.5132 21.0641 20.5132 21.6077 20.5132C21.9701 20.5132 22.1513 21.2377 22.1513 21.2377C21.6077 21.9622 20.0222 21.9622 20.0222 21.9622C20.3846 22.6868 22.3325 22.5056 22.6496 22.6868C23.012 22.6868 23.012 23.2302 23.3744 24.0905C23.5555 24.9509 24.7786 25.3132 24.7786 25.3132C25.141 26.7169 23.5555 27.0792 22.4684 27.0792C15.9906 26.6717 16.7154 18.883 16.7154 18.883ZM17.3949 9.01128C17.2137 9.01128 17.2137 9.01128 17.3949 9.01128C16.8513 6.38487 17.9385 3.35091 17.9385 3.35091C17.9385 3.35091 15.3111 5.47921 15.447 9.01128C13.1367 9.01128 9.78461 9.19242 7.83675 10.9585C5.0282 13.2679 4.66581 17.6603 4.48461 18.883C4.48461 18.883 4.48461 19.0641 4.30341 19.0641H4.12222C3.39743 18.7019 1.99316 17.2981 3.08034 14.3094C4.48461 10.4151 8.74273 2.67166 17.0325 2.12827C17.0325 2.12827 19.6598 1.94714 21.2906 2.98865C21.2906 2.98865 21.4718 2.98864 21.4718 3.16978V3.35091C20.747 3.8943 18.482 5.97733 17.7573 9.19242C17.7573 9.37355 17.5761 9.37355 17.5761 9.37355C17.5761 9.01128 17.3949 9.01128 17.3949 9.01128ZM23.6008 19.4264C23.6008 19.4264 24.3256 22.7773 25.9111 24C25.9111 24 25.9111 24.3622 25.3675 24.3622C24.8239 24.3622 23.9632 23.6377 23.6008 21.7358C23.2385 19.9698 23.6008 19.4264 23.6008 19.4264ZM25.8658 10.9585C23.9179 10.9585 23.0573 9.19242 23.0573 9.19242C23.0573 9.19242 25.3675 11.3207 28.5385 9.55469C28.5385 9.73582 27.8137 10.9585 25.8658 10.9585ZM50.2367 13.8113C49.6932 12.7698 49.0137 12.0453 47.4282 11.683C46.0239 11.3207 44.8008 11.5019 43.8949 12.2264L41.0863 11.1849C40.7239 10.4603 40.5427 9.78109 40.2256 9.2377C40.0444 8.6943 39.682 8.37733 39.3649 8.19619C37.4171 7.15469 32.2983 4.48299 30.3504 7.15468C30.3504 7.15468 30.1692 7.33582 30.1692 7.51695L29.4444 7.33581C29.082 6.2943 28.0402 5.38865 26.6359 5.02638C25.7752 4.84525 24.8692 4.84525 24.1444 5.20751C23.6008 5.38864 23.6008 6.06789 24.1444 6.24902L26.4547 7.1094C26.9983 7.29053 27.3154 7.83393 26.9983 8.33204C26.8171 8.87543 26.2735 9.19242 25.7752 8.87544C25.7752 8.87544 24.3709 8.51317 23.2838 8.15091C22.7402 7.96978 22.2419 8.51317 22.4231 9.01128C22.7855 10.0528 23.8273 11.1396 25.2316 11.5018C26.4547 11.8641 27.7231 11.5019 28.5838 10.9585L29.1273 11.1396C29.1273 12.3622 30.1692 13.9471 31.0752 14.4905C32.4795 15.3509 33.7026 14.6717 35.1521 13.766C35.1521 13.766 38.8667 16.5735 37.1 24.8603C32.5248 25.4037 30.7581 26.9886 29.1726 28.7547C28.1308 28.3924 24.9145 28.0302 23.1932 28.5736C23.7367 28.0302 24.4162 27.532 25.5034 27.1698C26.047 26.9886 26.2282 26.6264 26.2282 26.1283C26.2282 26.1283 28.3573 25.4037 28.3573 24.7245C28.3573 24 25.7299 24 24.6427 18.3849C24.4615 17.6603 24.2803 17.1622 23.2385 16.8C23.2385 16.8 22.8761 16.2566 23.4196 15.5773C23.9632 14.8528 24.1444 14.7169 23.9632 14.1736C23.782 13.6302 23.1026 13.3132 23.1026 13.3132V12.4528C23.1026 12.4528 20.9735 10.8679 20.9735 8.55845C20.9735 6.24902 23.9632 3.6226 24.688 2.89808V2.71695C24.688 2.71695 24.688 2.53582 24.5068 2.53582C23.4649 1.81129 21.5171 0.769775 18.3461 0.769775C5.97948 0.769775 3.17094 11.8641 0.498288 17.1622C0.498288 17.3434 0.498288 17.3434 0.498288 17.5245C3.12564 22.8226 7.38375 22.2792 7.74615 26.8528C7.92734 30.3849 7.02136 30.3849 6.34187 30.3849C5.79828 30.3849 4.9376 29.8415 4.57521 29.5245H4.39401C4.39401 29.5245 4.21281 29.7056 4.39401 29.7056C4.7564 30.566 5.61709 32.6943 8.47093 32.6943C9.87521 32.6943 10.2376 31.4717 10.2376 30.2037V26.1283C10.2376 25.766 10.0564 25.4037 9.87521 25.0868C9.01453 24.2264 6.88546 22.2792 6.88546 20.6943C6.88546 19.9698 7.42905 19.6528 7.92734 19.6528C8.96922 19.6528 10.0564 21.2377 10.9171 23.366C11.0983 23.9094 11.4607 24.2264 11.6419 24.4075H11.8231C11.8231 24.4075 11.8231 24.4075 11.8231 24.2264C11.4607 23.0037 11.4607 21.7358 11.2795 21.2377C11.2795 21.0566 11.0983 20.6943 10.9171 20.5132C10.0564 19.7886 7.92734 17.7056 7.92734 14.5358C7.92734 10.2792 14.8128 10.6415 16.2171 10.6415C16.5795 12.0452 17.4402 12.7698 17.9838 12.9509C15.8547 13.6754 11.2795 15.2603 11.2795 17.8868C11.2795 20.6943 16.0359 20.5132 16.0359 20.5132C16.0359 20.5132 15.3111 26.1736 20.6111 27.9396C20.6111 27.9396 19.7504 28.8 16.8966 28.8C14.2692 28.8 13.0008 27.5773 12.3214 26.1735C12.3214 26.1735 12.3214 25.9924 12.1402 25.9924C12.1402 25.9924 11.959 25.9924 11.959 26.1735C11.7778 26.5358 11.7778 27.2151 12.1402 27.9396C12.865 29.1622 13.9068 29.8868 13.9068 31.4717C13.9068 32.6943 12.8649 33.4188 12.3214 33.6C13.3632 33.7811 18.1649 35.0037 21.3359 36.5886C21.6983 36.4075 24.5068 34.6415 24.688 32.1962C24.688 32.1962 24.8692 30.6113 22.559 30.4302C22.559 30.4302 23.6008 30.0679 25.3675 30.0679C27.1342 30.0679 29.082 31.4717 25.5487 38.8981C25.5487 38.8981 25.5487 38.8981 25.5487 39.0792C26.0923 39.4415 30.1239 42.0679 32.7966 44.5585H32.9778C32.9778 44.5585 33.159 44.5585 33.159 44.3773C33.5214 44.0151 34.2008 42.7924 34.5632 39.8037C34.5632 39.4415 34.7444 39.2603 35.1068 39.2603C36.6923 38.717 41.9923 37.132 44.3026 33.9622C46.9299 30.249 48.0171 29.7056 48.0171 29.7056C48.0171 29.7056 49.7838 28.6641 49.059 25.9924C48.6966 24.5886 46.5675 21.0566 44.4838 17.3434C45.0273 17.7056 45.5256 17.8868 46.0692 18.0679C47.2923 18.4302 48.5607 18.249 49.4214 17.7056C49.6026 17.5245 49.7838 17.3434 49.7838 17.1622C49.7838 16.9811 49.6026 16.8 49.4214 16.6188L47.1111 15.7585C46.5675 15.5773 46.2504 14.8981 46.3863 14.3547C46.5675 13.8113 47.247 13.4943 47.7906 13.6302L49.9196 14.3547C50.1008 14.3547 50.282 14.3547 50.4632 14.1736C50.4179 13.9471 50.2367 14.1283 50.2367 13.8113ZM18.9803 20.4679C18.9803 20.4679 18.1197 20.649 18.2556 22.0528C18.4367 23.2754 19.4786 23.2754 19.4786 23.2754C18.6179 22.2339 18.9803 20.4679 18.9803 20.4679ZM3.62393 37.9471C6.79487 39.7132 13.8615 41.8415 15.2658 45.5547C15.2658 45.5547 15.8094 46.4151 12.9555 46.4151C10.8265 46.4151 10.3282 45.8717 8.87863 44.1056C6.74957 41.6151 2.35555 40.0302 2.35555 38.1283C2.21965 38.3094 2.40085 37.2679 3.62393 37.9471Z" fill="#5B5B5B"/>
</g>
<defs>
<clipPath id="clip0_20_2">
<rect width="265" height="48" fill="white"/>
</clipPath>
</defs>
</svg>
