<svg width="211" height="48" viewBox="0 0 211 48" fill="none" xmlns="http://www.w3.org/2000/svg">
<g clip-path="url(#clip0_22_6)">
<path d="M70.9543 4.19495C68.8603 4.19495 66.7662 6.11496 66.7662 8.3194C66.7662 9.9194 67.902 11.0572 69.4636 11.0572C71.5576 11.0572 73.6872 9.10162 73.6872 6.93273C73.7227 5.29718 72.5159 4.19495 70.9543 4.19495ZM56.509 6.0794C55.3378 11.875 51.5756 30.115 51.5756 30.115C51.3272 31.1105 49.9785 36.3727 55.4798 36.3727H56.2961L63.501 1.38607C63.501 1.38607 57.6803 0.354953 56.509 6.0794ZM65.0626 18.2394C63.8559 23.8927 62.6137 30.115 62.6137 30.115C62.3652 31.1105 61.0165 36.3727 66.5533 36.3727H67.3696L72.0545 13.6172C71.8061 13.6527 66.2693 12.6572 65.0626 18.2394ZM49.1622 21.3683C49.1622 26.2038 47.2101 30.7905 43.8029 33.5638C41.6734 35.3416 38.7985 36.4083 35.6042 36.4083C30.4934 36.4083 26.8377 33.635 26.8377 28.2661C26.8377 23.4661 28.7898 18.8794 32.197 16.1416C34.362 14.3638 37.2014 13.2972 40.4312 13.2972C45.471 13.2616 49.1622 15.9638 49.1622 21.3683ZM42.9866 21.4038C42.9866 19.0216 42.0638 17.315 39.6503 17.315C38.1242 17.315 36.7755 18.2038 35.7817 19.4838C33.9006 21.8661 32.9423 25.6705 32.9423 28.2661C32.9423 30.6838 33.9006 32.3905 36.3496 32.3905C37.8757 32.3905 39.1179 31.5016 40.1472 30.2216C42.0283 27.8038 42.9866 23.9638 42.9866 21.4038ZM157.874 4.5505C156.951 8.81717 152.586 30.115 152.586 30.115C152.337 31.3594 151.095 36.3727 156.49 36.3727H157.306L164.76 0.0705072C163.34 -0.142826 158.868 -0.142834 157.874 4.5505ZM179.311 13.2616C176.401 13.2616 173.917 14.5772 172.355 16.355C172.355 16.355 172.142 11.9105 166.321 13.6883C167.386 16.7816 166.783 17.8838 165.611 24.1061L164.369 30.1505C164.156 31.1816 162.772 36.4083 168.273 36.4083H169.09L171.255 25.9194C171.858 23.1105 172.994 17.7772 177.217 17.7772C179.311 17.7772 180.412 19.0927 179.737 22.3283L178.14 30.1505C177.892 31.1461 176.543 36.4083 182.044 36.4083H182.861L185.806 22.0794C187.12 15.9283 183.925 13.2616 179.311 13.2616ZM21.301 4.83495C21.0525 6.1505 20.4137 9.06607 19.4199 13.8305L9.26917 15.8572L12.2505 1.42162C11.3277 1.24384 6.28784 0.852731 5.29406 6.0794C4.97463 7.71495 0.325181 30.115 0.325181 30.115C0.0767368 31.2883 -1.27196 36.3727 4.2293 36.3727H5.08111L8.02695 22.1861L18.1777 20.1594C17.1839 25.0305 16.1191 30.115 16.1191 30.115C15.8707 31.1105 14.522 36.3727 20.0232 36.3727H20.8396L28.3284 0.0705072C28.2929 0.0705072 22.5077 -0.960607 21.301 4.83495ZM204.191 13.2616C201.281 13.2616 198.797 14.5772 197.235 16.355C197.235 16.355 197.022 11.9105 191.201 13.6883C192.266 16.7816 191.663 17.8838 190.491 24.1061L189.249 30.1505C189.036 31.1816 187.652 36.4083 193.189 36.4083H194.005L196.17 25.9194C196.773 23.1105 197.909 17.7772 202.133 17.7772C204.227 17.7772 205.327 19.0927 204.653 22.3283L203.056 30.1505C202.807 31.1461 201.458 36.4083 206.96 36.4083H207.776L210.722 22.0794C212 15.9283 208.805 13.2616 204.191 13.2616ZM89.6231 17.4927C89.3037 17.315 88.5228 17.1372 87.8485 17.1372C83.1635 17.1372 79.3659 22.8972 79.3659 28.2305C79.3659 30.8261 80.6081 32.2838 82.6312 32.2838C84.0863 32.2838 85.1156 31.715 85.9319 30.8261C86.7482 29.8661 87.3161 28.4438 87.671 26.7727L89.6231 17.4927ZM98.922 1.38607L91.7171 36.3727H90.9008C89.0552 36.3727 87.4581 35.6972 86.9257 34.0261C85.648 35.3772 83.483 36.3727 80.7501 36.3727C76.1361 36.3727 73.1193 33.2794 73.1193 28.3727C73.1193 20.3727 79.3659 13.2616 88.1324 13.2616C89.0197 13.2616 89.907 13.3327 90.4039 13.475C90.3329 13.7238 91.3622 8.95939 91.8946 6.18606C93.0303 0.532727 98.4251 1.35051 98.922 1.38607ZM120.217 15.3594L115.887 36.3727H115.071C113.225 36.3727 111.628 35.7327 111.096 34.0261C109.854 35.3772 107.653 36.3727 104.92 36.3727C100.306 36.3727 97.5378 33.3505 97.5378 28.4083C97.5378 19.9816 104.175 13.2261 112.551 13.2261C115.426 13.2616 117.875 14.0794 120.217 15.3594ZM113.793 17.4572C113.403 17.2794 112.977 17.1016 112.409 17.1016C107.085 17.1016 103.713 23.5372 103.713 28.2305C103.713 30.8261 104.743 32.2127 106.801 32.2127C108.256 32.2127 109.357 31.6438 110.173 30.755C110.989 29.795 111.522 28.3727 111.877 26.7016L113.793 17.4572ZM138.354 18.4883C139.596 12.6927 145.452 13.6883 145.452 13.6883L141.335 33.0661C140.519 36.9772 139.418 39.715 137.608 41.7416C135.408 44.195 132.001 45.6883 127.635 45.6883C122.56 45.6883 118.762 43.4127 118.762 39.5372C118.762 36.9416 120.395 35.0572 123.944 34.2038C123.021 33.1727 122.418 31.8572 122.418 30.2216C122.418 29.0838 122.666 27.6972 122.986 26.3461C122.986 26.3461 123.234 25.2794 124.583 18.8794C125.967 12.4794 131.752 13.6527 131.752 13.6527L129.055 26.5238C128.806 27.6261 127.635 31.8572 131.433 31.8572C135.727 31.8572 136.721 26.5238 137.289 23.715C137.218 23.715 137.111 24.2838 138.354 18.4883ZM134.946 34.2038C133.775 35.2705 131.681 35.8038 129.339 36.0883C126.038 36.4794 123.802 37.0127 123.802 39.3238C123.802 41.1016 125.576 42.0972 127.671 42.0972C129.374 42.0972 130.936 41.4927 132.072 40.3905C133.243 39.2527 134.095 37.6172 134.52 35.8394L134.946 34.2038Z" fill="#5B5B5B"/>
</g>
<defs>
<clipPath id="clip0_22_6">
<rect width="211" height="48" fill="white"/>
</clipPath>
</defs>
</svg>
