<svg width="358" height="48" viewBox="0 0 358 48" fill="none" xmlns="http://www.w3.org/2000/svg">
<g clip-path="url(#clip0_6_19)">
<path d="M225.85 15.2842V42.8563H233.668V15.2842H225.85ZM229.789 4.19067C232.896 4.19067 234.392 6.24295 234.392 8.85141C234.392 11.4599 232.896 13.344 229.789 13.344C226.682 13.344 225.131 11.3478 225.131 8.85141C225.131 6.35505 226.682 4.19067 229.789 4.19067Z" fill="#5B5B5B"/>
<path d="M339.426 42.8564V20.4969L337.819 15.2843H345.304L346.912 20.0011C348.243 16.6166 350.958 14.7324 354.897 14.7324C356.061 14.7324 357.173 14.9523 358.004 15.2326V22.7777C357.117 22.5018 356.121 22.3336 355.009 22.3336C349.575 22.3336 347.192 26.1062 347.192 31.211V42.8607H339.431L339.426 42.8564Z" fill="#5B5B5B"/>
<path d="M282.201 42.8563H272.608L264.235 15.2842H272.884L278.15 35.4189L282.921 19.7768L281.533 15.2842H289.794L295.396 35.475L300.551 15.2842H308.704L300.219 42.8563H290.682L286.523 29.7062L282.201 42.8563Z" fill="#5B5B5B"/>
<path d="M200.011 42.8563L187.147 5.24268H196.24L204.889 34.1988L213.982 5.24268H222.523L209.604 42.8563H200.011Z" fill="#5B5B5B"/>
<path d="M335.694 28.6542C335.694 20.4451 330.648 14.728 322.887 14.728C313.957 14.728 308.635 21.385 308.635 29.2061C308.635 37.0271 313.901 43.3521 322.499 43.3521C328.321 43.3521 332.036 41.4119 334.643 38.0835L329.54 33.8108C327.989 35.807 325.882 37.0271 323.055 37.0271C319.228 37.0271 317.013 34.8067 316.513 31.3144H335.587C335.643 30.4262 335.699 29.5941 335.699 28.6499L335.694 28.6542ZM327.821 26.4338H316.509C317.008 22.9371 318.784 20.8849 322.606 20.8849C326.101 20.8849 327.765 23.4373 327.817 26.4338H327.821Z" fill="#5B5B5B"/>
<path d="M264.037 28.6542C264.037 20.4451 259.046 14.728 251.229 14.728C242.412 14.728 237.089 21.385 237.089 29.2061C237.089 37.0271 242.248 43.3521 250.953 43.3521C256.775 43.3521 260.434 41.4119 263.097 38.0835L257.995 33.8108C256.387 35.807 254.336 37.0271 251.509 37.0271C247.682 37.0271 245.411 34.8067 244.911 31.3144H263.929C264.041 30.4262 264.041 29.5941 264.041 28.6499L264.037 28.6542ZM256.219 26.4338H244.907C245.407 22.9371 247.234 20.8849 251.061 20.8849C254.5 20.8849 256.163 23.4373 256.219 26.4338Z" fill="#5B5B5B"/>
<path d="M68.2447 42.8089V12.3524H55.605V5.19531H88.9818V12.3524H76.3982V42.8089H68.2447Z" fill="#5B5B5B"/>
<path d="M110.167 28.6068C110.167 20.3977 104.957 14.6807 97.1913 14.6807C88.3181 14.6807 83.052 21.3376 83.052 29.1587C83.052 36.9798 88.2621 43.3048 96.9715 43.3048C102.794 43.3048 106.508 41.3646 109.06 38.0361L103.957 33.7634C102.462 35.7596 100.298 36.9798 97.4154 36.9798C93.6446 36.9798 91.4253 34.7593 90.9814 31.267H109.999C110.055 30.3789 110.167 29.5467 110.167 28.6025V28.6068ZM90.9814 26.3864C91.4253 22.8898 93.2568 20.8375 97.0276 20.8375C100.579 20.8375 102.186 23.3899 102.294 26.3864H90.9814Z" fill="#5B5B5B"/>
<path d="M141.717 37.536V15.2369H134.895V18.2895H134.839C132.9 16.1812 130.124 14.6851 126.409 14.6851C118.48 14.6851 113.046 20.8419 113.046 29.107C113.046 37.3722 118.48 43.3091 126.409 43.3091C130.124 43.3091 132.895 42.089 134.839 39.9807H134.895L135.783 42.809H143.436L141.717 37.5404V37.536ZM127.909 36.8721C123.475 36.8721 121.143 33.3237 121.143 28.9389C121.143 24.9982 123.419 21.1739 127.909 21.1739C132.4 21.1739 134.731 25.0585 134.731 28.9389C134.731 33.3194 132.792 36.8721 127.909 36.8721Z" fill="#5B5B5B"/>
<path d="M160.403 21.7818C157.351 21.7818 155.688 24.1661 155.688 27.6627V42.809H147.871V20.4495L146.207 15.2369H153.861L155.192 19.5096C156.468 16.7934 159.019 14.6851 163.178 14.6851C166.505 14.6851 168.832 16.2932 170.163 18.9017C171.995 16.4614 174.822 14.6851 178.981 14.6851C185.522 14.6851 187.962 19.5657 187.962 26.3347V42.809H180.144V27.3307C180.144 23.6142 179.312 21.7818 176.485 21.7818C173.658 21.7818 171.827 24.1661 171.827 27.6627V42.8651H164.066V27.3307C164.066 23.6142 163.178 21.7818 160.407 21.7818H160.403Z" fill="#5B5B5B"/>
<path d="M40.8796 0H7.10199C3.18038 0 0 3.18189 0 7.10536V40.899C0 44.8224 3.18038 48.0043 7.10199 48.0043H40.8796C44.8012 48.0043 47.9816 44.8224 47.9816 40.899V7.10536C47.9816 3.18189 44.8012 0 40.8796 0ZM23.9908 43.2961C13.3378 43.2961 4.70162 34.6559 4.70162 23.9978C4.70162 13.3398 13.3378 4.70385 23.9908 4.70385C34.6438 4.70385 43.2799 13.3441 43.2799 24.0022C43.2799 34.6602 34.6438 43.3005 23.9908 43.3005V43.2961Z" fill="#5B5B5B"/>
<path d="M40.3236 23.9979L27.8779 17.1943L29.2483 21.4843H18.7332L20.0993 17.1943L7.65359 24.0022L20.0993 30.8101L18.7332 26.5158H29.2483L27.8779 30.8101L40.3236 23.9979Z" fill="#5B5B5B"/>
</g>
<defs>
<clipPath id="clip0_6_19">
<rect width="358" height="48" fill="white"/>
</clipPath>
</defs>
</svg>
