<svg width="140" height="48" viewBox="0 0 140 48" fill="none" xmlns="http://www.w3.org/2000/svg">
<g clip-path="url(#clip0_6_16)">
<path d="M9.6516 8.4105C7.84467 7.5979 6.74053 7.06612 6.3392 6.81516C5.85667 6.50449 5.6154 6.10332 5.6154 5.61166C5.6154 4.29714 6.811 3.63988 9.2022 3.63988C10.9009 3.63988 12.74 4.03499 14.7196 4.82519V0.776676C12.0577 0.258892 10.0235 0 8.617 0C6.0662 0 3.997 0.546706 2.4094 1.64012C0.803133 2.74379 0 4.34939 0 6.45691C0 8.09329 0.5516 9.44793 1.6548 10.5208C2.506 11.3343 4.33487 12.3177 7.1414 13.4708C8.70473 14.1136 9.6768 14.6155 10.0576 14.9766C10.2364 15.1344 10.3788 15.3291 10.475 15.5473C10.5712 15.7654 10.6189 16.0019 10.6148 16.2402C10.6148 17.5855 9.34127 18.2582 6.7942 18.2582C4.949 18.2582 2.82847 17.8813 0.4326 17.1275V21.3355C2.59961 21.8466 4.81828 22.1067 7.0448 22.1108C9.63573 22.1108 11.7451 21.6196 13.3728 20.6372C15.3813 19.4234 16.3856 17.662 16.3856 15.353C16.3856 13.7465 15.8732 12.4366 14.8484 11.4234C13.986 10.5698 12.2537 9.56548 9.6516 8.4105ZM19.7484 21.6798H25.704V0.370845H19.7484V21.6798ZM36.9068 12.5528H45.206V9.03603H36.9068V4.22484H46.4408V0.370845H31.1668V21.6798H46.6872V17.6089H36.9068V12.5528ZM63.6608 13.9858L58.296 0.370845H50.575V21.6798H54.7708V6.59265L60.9028 21.8967H64.5946L70.8484 6.59265V21.6798H76.4946V0.370845H69.16L63.6608 13.9858ZM87.6988 12.5528H95.998V9.03603H87.6988V4.22484H97.2328V0.370845H81.9588V21.6798H97.4778V17.6089H87.6988V12.5528ZM115.623 14.6351L108.301 0.370845H101.398V21.6798H105.595V7.22239L113.112 21.6798H119.819V0.370845H115.623V14.6351ZM133.266 8.4105C131.46 7.5979 130.356 7.06612 129.954 6.81516C129.471 6.50449 129.23 6.10332 129.23 5.61166C129.23 4.29714 130.425 3.63988 132.817 3.63988C134.515 3.63988 136.354 4.03499 138.334 4.82519V0.776676C135.672 0.258892 133.638 0 132.231 0C129.681 0 127.611 0.546706 126.024 1.64012C124.418 2.74379 123.614 4.34939 123.614 6.45691C123.614 8.09329 124.166 9.44793 125.269 10.5208C126.12 11.3343 127.949 12.3177 130.756 13.4708C132.32 14.1136 133.292 14.6155 133.672 14.9766C133.851 15.1344 133.993 15.3291 134.089 15.5473C134.186 15.7654 134.233 16.0019 134.229 16.2402C134.229 17.5855 132.956 18.2582 130.409 18.2582C128.563 18.2582 126.443 17.8813 124.047 17.1275V21.3355C126.214 21.8466 128.433 22.1067 130.659 22.1108C133.25 22.1108 135.359 21.6196 136.987 20.6372C138.996 19.4234 140 17.662 140 15.353C140 13.7465 139.488 12.4366 138.463 11.4234C137.6 10.5698 135.868 9.56548 133.266 8.4105Z" fill="#5B5B5B"/>
<path d="M17.346 26.484C15.484 26.3791 13.594 26.3091 11.69 26.3091C9.786 26.3091 7.896 26.3791 6.034 26.484C4.40951 26.5698 2.8794 27.2735 1.75743 28.451C0.635465 29.6284 0.00667432 31.1903 0 32.8164V41.4928C0.00667432 43.1188 0.635465 44.6807 1.75743 45.8582C2.8794 47.0356 4.40951 47.7394 6.034 47.8251C7.896 47.9301 9.786 48 11.69 48C13.594 48 15.484 47.9301 17.346 47.8251C18.9705 47.7394 20.5006 47.0356 21.6226 45.8582C22.7445 44.6807 23.3733 43.1188 23.38 41.4928V41.003H20.65V41.4928C20.6444 42.4139 20.2882 43.2984 19.6537 43.9664C19.0192 44.6344 18.154 45.0359 17.234 45.0893C15.4 45.2012 13.552 45.2712 11.69 45.2712C9.828 45.2712 7.98 45.2012 6.146 45.0893C5.226 45.0359 4.36083 44.6344 3.72632 43.9664C3.09181 43.2984 2.73557 42.4139 2.73 41.4928V32.8164C2.73557 31.8952 3.09181 31.0108 3.72632 30.3427C4.36083 29.6747 5.226 29.2732 6.146 29.2199C7.98 29.1079 9.828 29.0379 11.69 29.0379C13.552 29.0379 15.4 29.1079 17.234 29.2199C18.154 29.2732 19.0192 29.6747 19.6537 30.3427C20.2882 31.0108 20.6444 31.8952 20.65 32.8164V35.7551H9.38V38.554H23.38V32.8164C23.3733 31.1903 22.7445 29.6284 21.6226 28.451C20.5006 27.2735 18.9705 26.5698 17.346 26.484ZM41.867 26.519C40.362 26.393 38.822 26.3091 37.289 26.3091C35.756 26.3091 34.216 26.393 32.7124 26.519C31.1386 26.6644 29.6751 27.3895 28.6063 28.5533C27.5375 29.7171 26.9397 31.2366 26.929 32.8164V47.7901H29.659V32.8164C29.6648 31.897 30.0185 31.0139 30.6491 30.3446C31.2797 29.6753 32.1404 29.2695 33.0582 29.2087C34.4498 29.1121 35.861 29.0379 37.289 29.0379C38.717 29.0379 40.1296 29.1079 41.5212 29.2087C42.4387 29.2698 43.2991 29.6758 43.9294 30.3451C44.5597 31.0143 44.9133 31.8972 44.919 32.8164V47.7901H47.649V32.8164C47.6384 31.2368 47.0408 29.7175 45.9722 28.5538C44.9037 27.39 43.4405 26.6648 41.867 26.519ZM68.46 26.484C66.598 26.3791 64.708 26.3091 62.804 26.3091C60.9 26.3091 59.01 26.3791 57.148 26.484C55.5235 26.5698 53.9934 27.2735 52.8714 28.451C51.7495 29.6284 51.1207 31.1903 51.114 32.8164V41.4928C51.1207 43.1188 51.7495 44.6807 52.8714 45.8582C53.9934 47.0356 55.5235 47.7394 57.148 47.8251C59.01 47.9301 60.9 48 62.804 48C64.708 48 66.598 47.9301 68.46 47.8251C70.0845 47.7394 71.6146 47.0356 72.7366 45.8582C73.8585 44.6807 74.4873 43.1188 74.494 41.4928V41.003H71.764V41.4928C71.7584 42.4139 71.4022 43.2984 70.7677 43.9664C70.1332 44.6344 69.268 45.0359 68.348 45.0893C66.514 45.2012 64.666 45.2712 62.804 45.2712C60.942 45.2712 59.094 45.2012 57.26 45.0893C56.34 45.0359 55.4748 44.6344 54.8403 43.9664C54.2058 43.2984 53.8496 42.4139 53.844 41.4928V32.8164C53.8496 31.8952 54.2058 31.0108 54.8403 30.3427C55.4748 29.6747 56.34 29.2732 57.26 29.2199C59.094 29.1079 60.942 29.0379 62.804 29.0379C64.666 29.0379 66.514 29.1079 68.348 29.2199C69.268 29.2732 70.1332 29.6747 70.7677 30.3427C71.4022 31.0108 71.7584 31.8952 71.764 32.8164V35.7551H60.494V38.554H74.494V32.8164C74.4873 31.1903 73.8585 29.6284 72.7366 28.451C71.6146 27.2735 70.0845 26.5698 68.46 26.484ZM78.3426 32.815V47.7887H81.0726V32.815C81.0726 30.902 82.6434 29.2465 84.5404 29.2465H90.1026V26.5162H84.4452C81.4716 26.519 78.3426 29.0967 78.3426 32.815ZM109.41 26.484C107.548 26.3791 105.658 26.3091 103.754 26.3091C101.85 26.3091 99.96 26.3791 98.098 26.484C96.4735 26.5698 94.9434 27.2735 93.8214 28.451C92.6995 29.6284 92.0707 31.1903 92.064 32.8164V41.4928C92.0707 43.1188 92.6995 44.6807 93.8214 45.8582C94.9434 47.0356 96.4735 47.7394 98.098 47.8251C99.96 47.9301 101.85 48 103.754 48C105.658 48 107.548 47.9301 109.41 47.8251C111.034 47.7394 112.565 47.0356 113.687 45.8582C114.809 44.6807 115.437 43.1188 115.444 41.4928V35.7551H101.444V38.554H112.714V41.4928C112.708 42.4139 112.352 43.2984 111.718 43.9664C111.083 44.6344 110.218 45.0359 109.298 45.0893C107.464 45.2012 105.616 45.2712 103.754 45.2712C101.892 45.2712 100.044 45.2012 98.21 45.0893C97.29 45.0359 96.4248 44.6344 95.7903 43.9664C95.1558 43.2984 94.7996 42.4139 94.794 41.4928V32.8164C94.7996 31.8952 95.1558 31.0108 95.7903 30.3427C96.4248 29.6747 97.29 29.2732 98.21 29.2199C100.044 29.1079 101.892 29.0379 103.754 29.0379C105.616 29.0379 107.464 29.1079 109.298 29.2199C110.218 29.2732 111.083 29.6747 111.718 30.3427C112.352 31.0108 112.708 31.8952 112.714 32.8164V33.3062H115.444V32.8164C115.437 31.1903 114.809 29.6284 113.687 28.451C112.565 27.2735 111.034 26.5698 109.41 26.484ZM140 26.519H136.581L127.306 38.8199C126.481 39.9117 126.035 41.2436 126.038 42.6123V47.7901H128.768V42.6123C128.767 41.8359 129.02 41.0804 129.489 40.4614L140 26.519ZM119.318 26.519H115.753L125.478 38.102L127.163 35.8643L119.318 26.519Z" fill="#5B5B5B"/>
</g>
<defs>
<clipPath id="clip0_6_16">
<rect width="140" height="48" fill="white"/>
</clipPath>
</defs>
</svg>
