<svg width="8" height="8" viewBox="0 0 8 8" fill="none" xmlns="http://www.w3.org/2000/svg">
<path d="M5.37352 3.98936C5.4633 3.98936 5.53611 3.91655 5.53611 3.82677C5.53611 3.73699 5.4633 3.66418 5.37352 3.66418C5.28374 3.66418 5.21094 3.73699 5.21094 3.82677C5.21094 3.91655 5.28374 3.98936 5.37352 3.98936Z" fill="white" stroke="white" stroke-linecap="round" stroke-linejoin="round"/>
<path d="M3.74852 3.98936C3.8383 3.98936 3.91111 3.91655 3.91111 3.82677C3.91111 3.73699 3.8383 3.66418 3.74852 3.66418C3.65874 3.66418 3.58594 3.73699 3.58594 3.82677C3.58594 3.91655 3.65874 3.98936 3.74852 3.98936Z" fill="white" stroke="white" stroke-linecap="round" stroke-linejoin="round"/>
<path d="M2.12157 3.98936C2.21136 3.98936 2.28416 3.91655 2.28416 3.82677C2.28416 3.73699 2.21136 3.66418 2.12157 3.66418C2.03178 3.66418 1.95898 3.73699 1.95898 3.82677C1.95898 3.91655 2.03178 3.98936 2.12157 3.98936Z" fill="white" stroke="white" stroke-linecap="round" stroke-linejoin="round"/>
<path d="M3.74782 7.07853C5.54369 7.07853 6.99955 5.62267 6.99955 3.8268C6.99955 2.03092 5.54369 0.575073 3.74782 0.575073C1.95194 0.575073 0.496094 2.03092 0.496094 3.8268C0.496094 4.41907 0.654443 4.97437 0.931117 5.45267L0.65868 6.91595L2.12196 6.64352C2.60025 6.92017 3.15555 7.07853 3.74782 7.07853Z" stroke="white" stroke-width="0.6" stroke-linecap="round" stroke-linejoin="round"/>
</svg>
