<svg width="9" height="7" viewBox="0 0 9 7" fill="none" xmlns="http://www.w3.org/2000/svg">
<mask id="path-1-inside-1_725_424" fill="white">
<path d="M7.79554 6.56852H1.84081C1.25143 6.56852 0.763672 6.08076 0.763672 5.49139V1.1422C0.763672 0.552823 1.25143 0.0650635 1.84081 0.0650635H7.79554C8.38492 0.0650635 8.87267 0.552823 8.87267 1.1422V5.47107C8.87267 6.08076 8.38492 6.56852 7.79554 6.56852ZM1.84081 0.47153C1.45466 0.47153 1.14981 0.77638 1.14981 1.1422V5.47107C1.14981 5.83688 1.45466 6.14173 1.82048 6.14173H7.77522C8.14104 6.14173 8.44589 5.83688 8.44589 5.47107V1.1422C8.44589 0.77638 8.14104 0.47153 7.77522 0.47153H1.84081Z"/>
<path d="M4.80824 4.00779C4.46274 4.00779 4.13757 3.8452 3.89369 3.581L1.96298 1.26414C1.88168 1.18285 1.90201 1.06091 1.9833 0.979613C2.06459 0.89832 2.20686 0.918643 2.26783 0.999936L4.21886 3.33712C4.36113 3.52003 4.58468 3.62164 4.80824 3.62164C5.0318 3.62164 5.25535 3.52003 5.39762 3.33712L7.32833 1.02026C7.40962 0.938966 7.53156 0.918643 7.61286 0.999936C7.69415 1.08123 7.71447 1.20317 7.63318 1.28446L5.70247 3.60132C5.49923 3.86552 5.17406 4.00779 4.80824 4.00779Z"/>
<path d="M7.95812 5.61334C7.89715 5.61334 7.83618 5.59302 7.79553 5.53205L6.39322 3.86553C6.31193 3.78424 6.33225 3.64198 6.41354 3.58101C6.49484 3.49971 6.6371 3.52004 6.69807 3.60133L8.10038 5.26784C8.18167 5.34914 8.16135 5.4914 8.08006 5.55237C8.05973 5.59301 7.99876 5.61334 7.95812 5.61334Z"/>
<path d="M1.65789 5.59299C1.61724 5.59299 1.55627 5.57266 1.53595 5.55234C1.45465 5.47105 1.43433 5.34911 1.51562 5.26781L2.89761 3.62162C2.9789 3.54033 3.10084 3.52001 3.18214 3.6013C3.26343 3.68259 3.28375 3.80453 3.20246 3.88583L1.82047 5.53201C1.77983 5.57266 1.71886 5.59299 1.65789 5.59299Z"/>
</mask>
<path d="M7.79554 6.56852H1.84081C1.25143 6.56852 0.763672 6.08076 0.763672 5.49139V1.1422C0.763672 0.552823 1.25143 0.0650635 1.84081 0.0650635H7.79554C8.38492 0.0650635 8.87267 0.552823 8.87267 1.1422V5.47107C8.87267 6.08076 8.38492 6.56852 7.79554 6.56852ZM1.84081 0.47153C1.45466 0.47153 1.14981 0.77638 1.14981 1.1422V5.47107C1.14981 5.83688 1.45466 6.14173 1.82048 6.14173H7.77522C8.14104 6.14173 8.44589 5.83688 8.44589 5.47107V1.1422C8.44589 0.77638 8.14104 0.47153 7.77522 0.47153H1.84081Z" fill="#F2F3FD"/>
<path d="M4.80824 4.00779C4.46274 4.00779 4.13757 3.8452 3.89369 3.581L1.96298 1.26414C1.88168 1.18285 1.90201 1.06091 1.9833 0.979613C2.06459 0.89832 2.20686 0.918643 2.26783 0.999936L4.21886 3.33712C4.36113 3.52003 4.58468 3.62164 4.80824 3.62164C5.0318 3.62164 5.25535 3.52003 5.39762 3.33712L7.32833 1.02026C7.40962 0.938966 7.53156 0.918643 7.61286 0.999936C7.69415 1.08123 7.71447 1.20317 7.63318 1.28446L5.70247 3.60132C5.49923 3.86552 5.17406 4.00779 4.80824 4.00779Z" fill="#F2F3FD"/>
<path d="M7.95812 5.61334C7.89715 5.61334 7.83618 5.59302 7.79553 5.53205L6.39322 3.86553C6.31193 3.78424 6.33225 3.64198 6.41354 3.58101C6.49484 3.49971 6.6371 3.52004 6.69807 3.60133L8.10038 5.26784C8.18167 5.34914 8.16135 5.4914 8.08006 5.55237C8.05973 5.59301 7.99876 5.61334 7.95812 5.61334Z" fill="#F2F3FD"/>
<path d="M1.65789 5.59299C1.61724 5.59299 1.55627 5.57266 1.53595 5.55234C1.45465 5.47105 1.43433 5.34911 1.51562 5.26781L2.89761 3.62162C2.9789 3.54033 3.10084 3.52001 3.18214 3.6013C3.26343 3.68259 3.28375 3.80453 3.20246 3.88583L1.82047 5.53201C1.77983 5.57266 1.71886 5.59299 1.65789 5.59299Z" fill="#F2F3FD"/>
<path d="M3.89369 3.581L3.12547 4.22118L3.1417 4.24065L3.15889 4.25928L3.89369 3.581ZM1.96298 1.26414L2.7312 0.623955L2.70216 0.589107L2.67008 0.557032L1.96298 1.26414ZM2.26783 0.999936L1.46783 1.59994L1.48346 1.62078L1.50015 1.64078L2.26783 0.999936ZM4.21886 3.33712L5.00822 2.72318L4.99761 2.70954L4.98654 2.69628L4.21886 3.33712ZM5.39762 3.33712L4.6294 2.69693L4.61861 2.70988L4.60826 2.72318L5.39762 3.33712ZM7.32833 1.02026L6.62122 0.313153L6.58915 0.345228L6.56011 0.380075L7.32833 1.02026ZM7.63318 1.28446L6.92607 0.577356L6.894 0.609431L6.86496 0.644278L7.63318 1.28446ZM5.70247 3.60132L4.93424 2.96114L4.92175 2.97613L4.90984 2.99161L5.70247 3.60132ZM7.79553 5.53205L8.62758 4.97734L8.59662 4.9309L8.56068 4.8882L7.79553 5.53205ZM6.39322 3.86553L7.15837 3.22168L7.13071 3.18881L7.10033 3.15843L6.39322 3.86553ZM6.41354 3.58101L7.01354 4.38101L7.0704 4.33837L7.12065 4.28811L6.41354 3.58101ZM6.69807 3.60133L5.89807 4.20133L5.91488 4.22374L5.93292 4.24518L6.69807 3.60133ZM8.10038 5.26784L7.33523 5.91169L7.36289 5.94457L7.39327 5.97495L8.10038 5.26784ZM8.08006 5.55237L7.48006 4.75237L7.2912 4.89401L7.18563 5.10515L8.08006 5.55237ZM1.53595 5.55234L2.24305 4.84523L1.53595 5.55234ZM1.51562 5.26781L2.22273 5.97492L2.25352 5.94413L2.28152 5.91078L1.51562 5.26781ZM2.89761 3.62162L2.1905 2.91452L2.15972 2.94531L2.13172 2.97865L2.89761 3.62162ZM3.20246 3.88583L2.49535 3.17872L2.46456 3.20951L2.43657 3.24286L3.20246 3.88583ZM1.82047 5.53201L2.52758 6.23912L2.55837 6.20833L2.58637 6.17499L1.82047 5.53201ZM7.79554 5.56852H1.84081V7.56852H7.79554V5.56852ZM1.84081 5.56852C1.827 5.56852 1.80778 5.56331 1.78833 5.54387C1.76888 5.52442 1.76367 5.5052 1.76367 5.49139H-0.236328C-0.236328 6.63305 0.699147 7.56852 1.84081 7.56852V5.56852ZM1.76367 5.49139V1.1422H-0.236328V5.49139H1.76367ZM1.76367 1.1422C1.76367 1.12839 1.76888 1.10917 1.78833 1.08972C1.80778 1.07027 1.827 1.06506 1.84081 1.06506V-0.934937C0.699147 -0.934937 -0.236328 0.000538208 -0.236328 1.1422H1.76367ZM1.84081 1.06506H7.79554V-0.934937H1.84081V1.06506ZM7.79554 1.06506C7.80935 1.06506 7.82857 1.07027 7.84802 1.08972C7.86747 1.10917 7.87267 1.12839 7.87267 1.1422H9.87267C9.87267 0.000538439 8.9372 -0.934937 7.79554 -0.934937V1.06506ZM7.87267 1.1422V5.47107H9.87267V1.1422H7.87267ZM7.87267 5.47107C7.87267 5.54068 7.82051 5.56852 7.79554 5.56852V7.56852C8.94933 7.56852 9.87267 6.62084 9.87267 5.47107H7.87267ZM1.84081 -0.52847C0.921918 -0.52847 0.149815 0.204757 0.149815 1.1422H2.14981C2.14981 1.348 1.98741 1.47153 1.84081 1.47153V-0.52847ZM0.149815 1.1422V5.47107H2.14981V1.1422H0.149815ZM0.149815 5.47107C0.149815 6.38917 0.90238 7.14173 1.82048 7.14173V5.14173C1.92013 5.14173 2.0021 5.1835 2.05507 5.23648C2.10805 5.28945 2.14981 5.37142 2.14981 5.47107H0.149815ZM1.82048 7.14173H7.77522V5.14173H1.82048V7.14173ZM7.77522 7.14173C8.69332 7.14173 9.44589 6.38917 9.44589 5.47107H7.44589C7.44589 5.37142 7.48766 5.28945 7.54063 5.23647C7.5936 5.1835 7.67557 5.14173 7.77522 5.14173V7.14173ZM9.44589 5.47107V1.1422H7.44589V5.47107H9.44589ZM9.44589 1.1422C9.44589 0.224094 8.69332 -0.52847 7.77522 -0.52847V1.47153C7.67557 1.47153 7.5936 1.42976 7.54063 1.37679C7.48766 1.32382 7.44589 1.24184 7.44589 1.1422H9.44589ZM7.77522 -0.52847H1.84081V1.47153H7.77522V-0.52847ZM4.80824 3.00779C4.78549 3.00779 4.71485 2.99627 4.62849 2.90272L3.15889 4.25928C3.56029 4.69413 4.14 5.00779 4.80824 5.00779V3.00779ZM4.66191 2.94081L2.7312 0.623955L1.19475 1.90432L3.12547 4.22118L4.66191 2.94081ZM2.67008 0.557032C2.85514 0.742091 2.93 0.993453 2.9072 1.22138C2.88643 1.42913 2.79123 1.5859 2.69041 1.68672L1.27619 0.272506C0.943664 0.605035 0.657997 1.37337 1.25587 1.97125L2.67008 0.557032ZM2.69041 1.68672C2.48538 1.89174 2.22931 1.94248 2.03837 1.9243C1.85829 1.90715 1.63255 1.81957 1.46783 1.59994L3.06783 0.399936C2.84213 0.0990049 2.51477 -0.0393787 2.22799 -0.0666909C1.93036 -0.0950366 1.56251 -0.0138084 1.27619 0.272506L2.69041 1.68672ZM1.50015 1.64078L3.45119 3.97796L4.98654 2.69628L3.0355 0.359095L1.50015 1.64078ZM3.42951 3.95106C3.77152 4.39079 4.29325 4.62164 4.80824 4.62164V2.62164C4.87611 2.62164 4.95073 2.64927 5.00822 2.72318L3.42951 3.95106ZM4.80824 4.62164C5.32322 4.62164 5.84496 4.39079 6.18697 3.95106L4.60826 2.72318C4.66575 2.64927 4.74037 2.62164 4.80824 2.62164V4.62164ZM6.16584 3.9773L8.09655 1.66044L6.56011 0.380075L4.6294 2.69693L6.16584 3.9773ZM8.03544 1.72737C7.93461 1.82819 7.77785 1.92339 7.5701 1.94417C7.34217 1.96696 7.09081 1.8921 6.90575 1.70704L8.31996 0.292829C7.72209 -0.305042 6.95375 -0.0193773 6.62122 0.313153L8.03544 1.72737ZM6.90575 1.70704C6.80493 1.60622 6.70973 1.44945 6.68895 1.2417C6.66616 1.01377 6.74102 0.762413 6.92607 0.577356L8.34029 1.99157C8.93816 1.3937 8.6525 0.62536 8.31996 0.292829L6.90575 1.70704ZM6.86496 0.644278L4.93424 2.96114L6.47069 4.2415L8.4014 1.92465L6.86496 0.644278ZM4.90984 2.99161C4.91449 2.98556 4.91678 2.98684 4.90596 2.99171C4.89352 2.9973 4.86222 3.00779 4.80824 3.00779V5.00779C5.43116 5.00779 6.07223 4.76074 6.49509 4.21103L4.90984 2.99161ZM7.95812 4.61334C8.03565 4.61334 8.15271 4.62596 8.283 4.68519C8.42182 4.74828 8.54252 4.84976 8.62758 4.97734L6.96348 6.08675C7.2406 6.50243 7.6666 6.61334 7.95812 6.61334V4.61334ZM8.56068 4.8882L7.15837 3.22168L5.62807 4.50938L7.03038 6.17589L8.56068 4.8882ZM7.10033 3.15843C7.30535 3.36345 7.35609 3.61953 7.33791 3.81046C7.32076 3.99054 7.23318 4.21628 7.01354 4.38101L5.81354 2.78101C5.51261 3.0067 5.37423 3.33406 5.34692 3.62084C5.31857 3.91847 5.3998 4.28632 5.68611 4.57264L7.10033 3.15843ZM7.12065 4.28811C6.91563 4.49313 6.65955 4.54388 6.46862 4.52569C6.28854 4.50854 6.0628 4.42097 5.89807 4.20133L7.49807 3.00133C7.27237 2.7004 6.94502 2.56202 6.65824 2.5347C6.36061 2.50636 5.99275 2.58759 5.70644 2.8739L7.12065 4.28811ZM5.93292 4.24518L7.33523 5.91169L8.86553 4.62399L7.46322 2.95748L5.93292 4.24518ZM7.39327 5.97495C7.18825 5.76993 7.13751 5.51385 7.15569 5.32292C7.17284 5.14283 7.26042 4.9171 7.48006 4.75237L8.68006 6.35237C8.98098 6.12667 9.11937 5.79932 9.14668 5.51254C9.17503 5.21491 9.0938 4.84705 8.80749 4.56074L7.39327 5.97495ZM7.18563 5.10515C7.31986 4.83669 7.53294 4.72323 7.62057 4.68428C7.72076 4.63976 7.83335 4.61334 7.95812 4.61334V6.61334C8.12352 6.61334 8.28693 6.57676 8.43285 6.51191C8.5662 6.45264 8.81993 6.3087 8.97448 5.99958L7.18563 5.10515ZM1.65789 4.59299C1.77747 4.59299 1.86256 4.61728 1.90553 4.6316C1.93345 4.64091 1.972 4.65562 2.01728 4.67905C2.05138 4.69668 2.14505 4.74723 2.24305 4.84523L0.828841 6.25945C1.01063 6.44124 1.21789 6.51057 1.27307 6.52897C1.36176 6.55853 1.49766 6.59299 1.65789 6.59299V4.59299ZM2.24305 4.84523C2.34388 4.94606 2.43908 5.10282 2.45985 5.31057C2.48265 5.5385 2.40779 5.78986 2.22273 5.97492L0.808518 4.56071C0.210646 5.15858 0.496313 5.92692 0.828841 6.25945L2.24305 4.84523ZM2.28152 5.91078L3.6635 4.26459L2.13172 2.97865L0.749734 4.62484L2.28152 5.91078ZM3.60472 4.32873C3.50389 4.42955 3.34713 4.52475 3.13938 4.54553C2.91145 4.56832 2.66009 4.49347 2.47503 4.30841L3.88924 2.89419C3.29137 2.29632 2.52303 2.58199 2.1905 2.91452L3.60472 4.32873ZM2.47503 4.30841C2.37421 4.20758 2.27901 4.05082 2.25823 3.84307C2.23544 3.61514 2.31029 3.36378 2.49535 3.17872L3.90957 4.59293C4.50744 3.99506 4.22177 3.22672 3.88924 2.89419L2.47503 4.30841ZM2.43657 3.24286L1.05458 4.88904L2.58637 6.17499L3.96835 4.5288L2.43657 3.24286ZM1.11337 4.82491C1.30269 4.63559 1.52037 4.59299 1.65789 4.59299V6.59299C1.91734 6.59299 2.25697 6.50974 2.52758 6.23912L1.11337 4.82491Z" fill="white" mask="url(#path-1-inside-1_725_424)"/>
</svg>
