<svg width="201" height="48" viewBox="0 0 201 48" fill="none" xmlns="http://www.w3.org/2000/svg">
<path d="M47.1866 44.8101H36.0439L32.6352 36.5742H14.0647L10.9591 44.8101H0L16.7429 3.21405H28.7377L47.1866 44.8101ZM22.8929 13.1536L16.8044 29.3154H29.5908L22.8929 13.1536ZM87.6626 3.21405H96.6736V44.8101H86.3218V18.828L75.1188 31.8787H73.5364L62.3342 18.828V44.8096H51.9824V3.21405H60.9934L74.327 18.6443L87.6626 3.21405ZM122.903 3.21405C138.063 3.21405 145.855 12.6663 145.855 24.0714C145.855 36.0253 138.306 44.8101 121.745 44.8101H104.575V3.21405H122.903ZM114.926 37.1863H121.683C132.095 37.1863 135.2 30.1099 135.2 24.0098C135.2 16.8733 131.364 10.8369 121.561 10.8369H114.926V37.1863H114.926ZM166.449 13.0768L153.397 0H200.914V47.5995L187.861 34.5242V13.0768H166.449ZM166.434 15.6972L152.996 29.1577V48H171.804L185.241 34.5395H166.434V15.6972Z" fill="#5B5B5B"/>
</svg>
