<svg width="192" height="48" viewBox="0 0 192 48" fill="none" xmlns="http://www.w3.org/2000/svg">
<path d="M26.1955 15.4648L17.5294 36.9781H27.9502L31.5988 47.3914H0L19.6321 0.51588H33.2955L52.8638 47.3914H38.9598L26.1955 15.4648ZM170.01 26.1708L170.071 25.9331C170.19 25.4665 170.335 25.0463 170.494 24.684C171.074 23.3943 171.834 22.4234 172.759 21.8003C173.69 21.1743 174.729 20.8555 175.842 20.8555C176.817 20.8555 177.757 21.1047 178.638 21.5887C179.52 22.0756 180.271 22.8378 180.874 23.8551C181.22 24.4434 181.463 25.1477 181.594 25.9476L181.634 26.1708H170.01ZM190.631 21.7017C190.176 20.6729 189.639 19.7165 189.027 18.8441C188.415 17.9688 187.722 17.1747 186.959 16.4647C185.431 15.0504 183.679 13.9606 181.75 13.2303C179.825 12.4999 177.791 12.129 175.706 12.129C172.646 12.129 169.792 12.8593 167.22 14.2997C164.65 15.7372 162.562 17.8036 161.01 20.441C159.459 23.0755 158.67 26.2345 158.67 29.8283C158.67 32.6685 159.189 35.2421 160.207 37.4766C161.225 39.714 162.652 41.6211 164.447 43.1484C166.242 44.6787 168.348 45.8611 170.7 46.6581C173.055 47.458 175.648 47.8638 178.409 47.8638C180.407 47.8638 182.394 47.6406 184.311 47.1943C186.185 46.7596 187.998 46.1017 189.703 45.2409V36.071C187.954 36.8651 186.266 37.4969 184.677 37.9461C183 38.4214 181.257 38.6649 179.488 38.6649C177.58 38.6649 175.883 38.3403 174.444 37.7027C173 37.0593 171.831 36.071 170.982 34.761C170.723 34.364 170.497 33.9089 170.306 33.4076L170.207 33.1438H191.742C191.782 32.5497 191.835 31.8976 191.898 31.1615C191.965 30.4079 192 29.637 192 28.8806C192 26.1765 191.539 23.7623 190.631 21.7017ZM143.733 34.4509C143.376 35.0479 142.962 35.5754 142.492 36.0362C142.022 36.4912 141.497 36.8767 140.923 37.1897C139.771 37.807 138.536 38.1229 137.248 38.1229C136.5 38.1229 135.734 38.0244 134.971 37.8302L134.826 37.7925V22.3161L134.974 22.2814C135.792 22.0959 136.668 22.0031 137.585 22.0031C138.872 22.0031 140.073 22.2814 141.155 22.8349C142.242 23.3885 143.13 24.2579 143.803 25.4114C144.467 26.562 144.806 28.0488 144.806 29.8283C144.806 31.7005 144.444 33.2569 143.733 34.4509ZM154.809 21.9046C153.855 19.7136 152.541 17.8732 150.903 16.4357C149.264 14.9982 147.434 13.9201 145.462 13.2332C143.487 12.5434 141.451 12.1956 139.412 12.1956C137.854 12.1956 136.393 12.3579 135.064 12.6738L134.826 12.7318V0H123.118V45.1656C125.221 46.1191 127.422 46.8349 129.652 47.2928C131.929 47.7624 134.438 48 137.115 48C139.51 48 141.889 47.6058 144.18 46.8291C146.465 46.0524 148.545 44.8844 150.366 43.3542C152.182 41.8268 153.635 39.9053 154.673 37.6476C155.714 35.387 156.245 32.712 156.245 29.6921C156.245 26.7185 155.761 24.0956 154.809 21.9046ZM108.312 34.5031C108.022 35.1001 107.688 35.6276 107.308 36.0768C106.928 36.5231 106.508 36.8912 106.044 37.1839C105.116 37.7607 104.08 38.0563 102.967 38.0563C101.856 38.0563 100.82 37.7607 99.8922 37.1839C98.9612 36.6014 98.2013 35.7029 97.6242 34.5031C97.0499 33.3148 96.7628 31.7875 96.7628 29.9616C96.7628 28.0952 97.0499 26.5562 97.6242 25.3882C98.2013 24.2116 98.9612 23.3218 99.8922 22.7422C100.82 22.1654 101.856 21.8698 102.967 21.8698C104.08 21.8698 105.113 22.1654 106.044 22.7422C106.972 23.3218 107.735 24.2116 108.312 25.3882C108.883 26.5591 109.176 28.0981 109.176 29.9616C109.176 31.7846 108.883 33.3119 108.312 34.5031ZM118.208 20.1367C116.612 17.479 114.458 15.4387 111.798 14.065C110.464 13.3781 109.057 12.8622 107.584 12.5144C106.108 12.1695 104.567 11.9928 102.967 11.9928C99.7733 11.9928 96.8005 12.6912 94.138 14.065C91.4784 15.4387 89.3119 17.479 87.6935 20.1396C86.0752 22.7943 85.2573 26.0983 85.2573 29.9616C85.2573 33.8249 86.0752 37.1317 87.6935 39.7865C89.3119 42.4441 91.4813 44.499 94.138 45.8959C96.8005 47.2928 99.7704 48 102.967 48C106.119 48 109.077 47.2928 111.763 45.8959C114.443 44.499 116.612 42.4442 118.208 39.7894C119.803 37.1317 120.612 33.8249 120.612 29.9616C120.612 26.0983 119.803 22.7943 118.208 20.1367ZM71.1096 37.7317L70.9617 37.7694C70.138 37.9606 69.2853 38.0563 68.4152 38.0563C67.1739 38.0563 65.9848 37.7636 64.8827 37.1897C63.7718 36.613 62.8699 35.7232 62.1999 34.5495C61.5357 33.3757 61.1964 31.857 61.1964 30.0312C61.1964 28.1618 61.5212 26.6084 62.1651 25.4143C62.8118 24.2116 63.7167 23.3218 64.8537 22.7683C65.9761 22.2147 67.2435 21.9365 68.6211 21.9365C69.4187 21.9365 70.2076 22.0292 70.9617 22.2118L71.1096 22.2495V37.7317ZM71.1096 0V12.4912L70.8805 12.4478C69.7784 12.2362 68.6299 12.129 67.4726 12.129C65.2539 12.129 63.0439 12.5086 60.915 13.2651C58.7862 14.0186 56.8662 15.175 55.2015 16.7023C53.5425 18.2326 52.1793 20.1309 51.1613 22.348C50.1404 24.5594 49.6242 27.1677 49.6242 30.0978C49.6242 33.2047 50.1839 35.9232 51.2918 38.1809C52.3998 40.4415 53.8731 42.3166 55.6655 43.757C57.4637 45.1974 59.5084 46.2756 61.7503 46.9624C63.9981 47.6493 66.2864 48 68.5515 48C71.3155 48 73.8707 47.7508 76.1474 47.261C78.3778 46.7799 80.5994 46.0524 82.7485 45.0989V0H71.1096Z" fill="#5B5B5B"/>
</svg>
