<svg width="296" height="48" viewBox="0 0 296 48" fill="none" xmlns="http://www.w3.org/2000/svg">
<g clip-path="url(#clip0_8_34)">
<path d="M53.047 0L28.76 3.47828L26.5234 9.73916L24.287 3.47828L0 0L8.11774 22.6254L18.091 24.054L26.5276 47.6772L34.9642 24.054L44.9334 22.6254L53.047 0ZM45.0328 9.73502L35.0388 11.1677L33.4276 15.6854L43.4134 14.2568L41.7898 18.7827L31.8124 20.2112L26.5194 35.0312L21.2262 20.2112L11.2489 18.7827L9.62532 14.2568L19.611 15.6854L17.9998 11.1677L8.0059 9.73502L6.38236 5.20912L21.1392 7.32508L26.5194 22.3894L31.8994 7.32508L46.6562 5.20912L45.0328 9.73502Z" fill="#5B5B5B"/>
<path d="M57.8016 22.1534C57.8016 20.6586 57.9714 19.1513 58.3068 17.6316C58.6464 16.1119 59.218 14.5798 60.0256 13.027C60.8332 11.4784 61.8314 10.1078 63.016 8.92348C64.2004 7.73508 65.7246 6.76198 67.5966 6.00836C69.4646 5.25474 71.5354 4.87378 73.8134 4.87378C75.4658 4.87378 77.0024 5.05598 78.423 5.41622C79.8436 5.77648 81.0696 6.26094 82.0968 6.86136C83.1238 7.46178 84.0558 8.16572 84.8882 8.97732C85.7208 9.78478 86.4042 10.6212 86.9384 11.4742C87.4726 12.3272 87.9242 13.2258 88.2968 14.1575C88.6654 15.0891 88.9388 15.9421 89.1086 16.7123C89.2784 17.4825 89.3862 18.2237 89.4316 18.9318H84.2048C84.0184 15.8966 82.9996 13.5281 81.1482 11.822C79.297 10.116 76.9528 9.26716 74.1116 9.26716C72.5998 9.26716 71.1668 9.55702 69.8166 10.1367C68.4664 10.7165 67.2778 11.5363 66.2506 12.6005C65.2234 13.6647 64.4116 15.0187 63.807 16.6626C63.2064 18.3065 62.904 20.1368 62.904 22.1574C62.904 24.1782 63.2106 25.9256 63.8194 27.5364C64.4282 29.1472 65.2524 30.4764 66.2962 31.5156C67.3398 32.5592 68.5368 33.3584 69.8952 33.9216C71.2538 34.4846 72.7034 34.7662 74.2482 34.7662C77.0894 34.7662 79.4212 33.967 81.2518 32.3688C83.0784 30.7704 84.064 28.5634 84.2008 25.7518H89.4276C89.3654 26.8448 89.1708 27.9546 88.8394 29.081C88.508 30.2072 87.9572 31.3832 87.1952 32.6172C86.429 33.8512 85.493 34.9402 84.3788 35.8884C83.2688 36.8366 81.8192 37.6192 80.0342 38.2362C78.2492 38.8532 76.261 39.1596 74.0702 39.1596C71.8792 39.1596 69.684 38.787 67.7954 38.0374C65.9026 37.2922 64.3536 36.3274 63.1444 35.1514C61.935 33.9754 60.916 32.6212 60.0878 31.0974C59.2552 29.5736 58.6672 28.0622 58.3234 26.5674C57.9796 25.0726 57.8056 23.6026 57.8056 22.1534H57.8016Z" fill="#5B5B5B"/>
<path d="M91.7924 26.0952C91.7924 23.7018 92.3308 21.5156 93.4118 19.5279C94.4928 17.5445 95.9838 15.9834 97.889 14.8488C99.7942 13.7143 101.902 13.147 104.213 13.147C106.525 13.147 108.616 13.7143 110.513 14.8488C112.414 15.9834 113.905 17.5404 114.994 19.5279C116.084 21.5114 116.626 23.7018 116.626 26.0952C116.626 28.4886 116.088 30.6832 115.007 32.6832C113.926 34.6832 112.431 36.2568 110.525 37.4204C108.62 38.5798 106.512 39.1594 104.213 39.1594C101.915 39.1594 99.7942 38.5798 97.889 37.4162C95.9838 36.2568 94.4928 34.6792 93.4118 32.6832C92.335 30.6916 91.7924 28.497 91.7924 26.0952ZM96.5306 26.0952C96.5306 28.6128 97.2636 30.795 98.7256 32.6418C100.192 34.4886 102.018 35.412 104.205 35.412C106.392 35.412 108.181 34.4886 109.66 32.6418C111.138 30.795 111.88 28.6128 111.88 26.0952C111.88 23.5776 111.138 21.4658 109.66 19.677C108.181 17.8841 106.359 16.9896 104.205 16.9896C102.051 16.9896 100.188 17.8841 98.7256 19.677C97.2636 21.47 96.5306 23.6066 96.5306 26.0952Z" fill="#5B5B5B"/>
<path d="M118.726 25.9088C118.726 23.6646 119.232 21.561 120.242 19.5983C121.253 17.6356 122.632 16.0703 124.38 14.9026C126.128 13.7349 128.02 13.1469 130.054 13.1469C131.197 13.1469 132.27 13.3374 133.28 13.7225C134.291 14.1076 135.156 14.6169 135.881 15.2629C136.606 15.9047 137.215 16.5631 137.708 17.2298C138.201 17.8964 138.615 18.5962 138.954 19.3291V5.42847H143.692V38.5798H138.954V33.0724C138.184 34.8448 137.066 36.3064 135.6 37.4452C134.138 38.588 132.394 39.1594 130.373 39.1594C128.77 39.1594 127.242 38.791 125.784 38.058C124.326 37.325 123.088 36.3562 122.06 35.1512C121.033 33.9462 120.221 32.5382 119.621 30.9234C119.02 29.3126 118.718 27.6398 118.718 25.9088H118.726ZM123.464 25.9544C123.464 27.499 123.779 28.9938 124.4 30.439C125.022 31.884 125.954 33.0974 127.188 34.0786C128.422 35.06 129.814 35.5486 131.371 35.5486C132.833 35.5486 134.162 35.118 135.347 34.2608C136.531 33.4038 137.447 32.2816 138.085 30.9026C138.727 29.5196 139.045 28.0332 139.045 26.443C139.045 25.3002 138.867 24.1614 138.515 23.0228C138.159 21.8882 137.662 20.8488 137.024 19.9047C136.382 18.9606 135.558 18.2028 134.539 17.6231C133.52 17.0434 132.406 16.7536 131.185 16.7536C129.723 16.7536 128.389 17.2049 127.184 18.1117C125.978 19.0144 125.059 20.1656 124.421 21.5652C123.779 22.9648 123.46 24.4264 123.46 25.9586L123.464 25.9544Z" fill="#5B5B5B"/>
<path d="M146.504 26.2816C146.504 23.909 146.993 21.7268 147.975 19.7391C148.952 17.7515 150.369 16.1573 152.228 14.9524C154.088 13.7474 156.2 13.147 158.577 13.147C162.139 13.147 165.026 14.4265 167.238 16.9855C169.449 19.5445 170.593 22.8116 170.671 26.7868H151.247C151.247 29.3292 151.955 31.4244 153.375 33.0726C154.792 34.7246 156.689 35.5488 159.062 35.5488C160.681 35.5488 162.11 35.143 163.353 34.3354C164.591 33.528 165.469 32.352 165.979 30.8116L169.909 32.5218C169.106 34.4638 167.805 36.0538 165.999 37.2962C164.194 38.5384 161.945 39.1594 159.248 39.1594C155.455 39.1594 152.386 37.9462 150.033 35.5198C147.685 33.0932 146.509 30.0166 146.509 26.2858L146.504 26.2816ZM151.383 23.7142H165.743C165.482 21.5114 164.678 19.8012 163.336 18.5838C161.994 17.3665 160.425 16.7578 158.619 16.7578C156.813 16.7578 155.148 17.3996 153.798 18.6791C152.448 19.9586 151.644 21.6356 151.383 23.7184V23.7142Z" fill="#5B5B5B"/>
<path d="M173.86 25.6564H179.087C179.087 27.321 179.356 28.7786 179.895 30.025C180.433 31.2756 181.162 32.2444 182.077 32.936C182.993 33.6276 183.974 34.141 185.022 34.4722C186.07 34.8034 187.184 34.9692 188.373 34.9692C189.756 34.9692 191.044 34.7786 192.229 34.3894C193.413 34.0002 194.391 33.408 195.161 32.6088C195.931 31.8096 196.316 30.8574 196.316 29.7642C196.316 29.2838 196.238 28.849 196.084 28.4474C195.931 28.0458 195.728 27.6938 195.484 27.3832C195.235 27.0726 194.892 26.7828 194.444 26.5054C193.997 26.2278 193.554 25.9878 193.115 25.789C192.676 25.5902 192.084 25.3748 191.342 25.1472C190.601 24.9194 189.942 24.7372 189.375 24.6048C188.808 24.468 188.074 24.2942 187.172 24.0746C185.904 23.7724 184.927 23.5364 184.247 23.3748C183.568 23.2134 182.649 22.9442 181.485 22.5798C180.321 22.2114 179.414 21.8138 178.768 21.3914C178.122 20.969 177.443 20.4514 176.734 19.8469C176.026 19.2382 175.513 18.5136 175.198 17.6689C174.879 16.8241 174.722 15.8759 174.722 14.8324C174.722 13.5363 174.983 12.2982 175.509 11.1264C176.035 9.95454 176.801 8.8945 177.811 7.95454C178.822 7.01458 180.143 6.26508 181.779 5.71022C183.415 5.15536 185.266 4.87378 187.333 4.87378C189.168 4.87378 190.829 5.1098 192.307 5.57772C193.79 6.04976 195.024 6.67502 196.01 7.46178C197 8.24854 197.824 9.18022 198.487 10.2568C199.149 11.3376 199.63 12.4597 199.924 13.6316C200.218 14.8034 200.362 16.0291 200.362 17.3086H195.136C195.136 14.6212 194.486 12.5715 193.185 11.1637C191.885 9.75578 189.98 9.05598 187.474 9.05598C185.15 9.05598 183.316 9.56944 181.97 10.5922C180.624 11.6191 179.948 12.8821 179.948 14.3852C179.948 14.9649 180.077 15.4784 180.338 15.9339C180.599 16.3894 180.909 16.7662 181.278 17.0602C181.647 17.3542 182.185 17.6523 182.901 17.9504C183.618 18.2486 184.405 18.497 185.258 18.6999C186.111 18.9028 187.039 19.1264 188.037 19.3666C188.779 19.5446 189.454 19.7061 190.067 19.8511C190.68 20.0002 191.371 20.1948 192.15 20.439C192.929 20.6834 193.612 20.9236 194.208 21.1512C194.805 21.3832 195.438 21.6564 196.105 21.9752C196.772 22.2982 197.36 22.6336 197.861 22.9856C198.362 23.3376 198.859 23.7476 199.336 24.2114C199.816 24.6792 200.214 25.1678 200.524 25.6772C200.836 26.1906 201.084 26.7662 201.266 27.408C201.452 28.0498 201.548 28.729 201.548 29.4494C201.548 32.2362 200.342 34.551 197.928 36.3936C195.513 38.232 192.328 39.1554 188.381 39.1554C183.875 39.1554 180.334 37.9464 177.749 35.5282C175.165 33.11 173.877 29.818 173.877 25.6564H173.86Z" fill="#5B5B5B"/>
<path d="M204.388 38.5796V13.7266H209.128V38.5796H204.388Z" fill="#5B5B5B"/>
<path d="M212.282 26.0704C212.282 24.4224 212.564 22.8158 213.128 21.2506C213.69 19.6853 214.458 18.3064 215.426 17.1139C216.396 15.9213 217.592 14.9607 219.008 14.236C220.426 13.5114 221.946 13.1511 223.564 13.1511C225.4 13.1511 227.072 13.5776 228.584 14.4348C230.096 15.2919 231.12 16.3934 231.658 17.7474V13.7805H236.396V37.1678C236.396 38.5384 236.172 39.8344 235.724 41.0518C235.278 42.2692 234.61 43.3706 233.724 44.3562C232.838 45.3418 231.666 46.1244 230.208 46.6998C228.75 47.2796 227.09 47.5654 225.226 47.5654C223.714 47.5654 222.314 47.3708 221.018 46.9856C219.722 46.6006 218.644 46.1036 217.778 45.495C216.918 44.8862 216.172 44.1988 215.55 43.437C214.926 42.675 214.474 41.9296 214.196 41.205C213.918 40.4804 213.774 39.7972 213.758 39.147H218.682C218.772 40.5798 219.46 41.789 220.74 42.7744C222.02 43.76 223.498 44.2526 225.18 44.2526C226.03 44.2526 226.832 44.1118 227.598 43.822C228.36 43.5364 229.06 43.1182 229.702 42.5716C230.344 42.0208 230.85 41.2796 231.226 40.3438C231.604 39.408 231.794 38.3354 231.794 37.1306V32.5632C231.562 33.2298 231.256 33.8552 230.87 34.4348C230.486 35.0146 229.984 35.586 229.368 36.145C228.75 36.704 227.96 37.143 226.998 37.4576C226.034 37.7764 224.952 37.9338 223.746 37.9338C220.48 37.9338 217.75 36.8076 215.562 34.559C213.376 32.3106 212.278 29.4742 212.278 26.0538L212.282 26.0704ZM217.02 25.9794C217.02 28.6004 217.796 30.7412 219.344 32.3976C220.894 34.0538 222.724 34.882 224.836 34.882C226.948 34.882 228.668 34.0332 229.992 32.3314C231.318 30.6294 231.98 28.5756 231.98 26.1656C231.98 24.588 231.704 23.1222 231.148 21.7722C230.594 20.4224 229.74 19.3126 228.592 18.4389C227.446 17.5652 226.116 17.1263 224.604 17.1263C222.4 17.1263 220.586 17.9834 219.158 19.6894C217.734 21.3996 217.02 23.4948 217.02 25.9794Z" fill="#5B5B5B"/>
<path d="M239.652 38.5798V13.7267H244.39V20.3602C245.114 18.1863 246.258 16.4431 247.818 15.1263C249.38 13.8095 251.302 13.1511 253.584 13.1511C256.354 13.1511 258.52 14.1159 260.082 16.0414C261.644 17.9669 262.426 20.6046 262.426 23.9462V38.5798H257.688V26.2816C257.688 20.087 255.776 16.9896 251.944 16.9896C250.756 16.9896 249.666 17.2961 248.68 17.9048C247.69 18.5135 246.896 19.3044 246.294 20.2734C245.694 21.2422 245.226 22.3022 244.894 23.4534C244.564 24.6046 244.398 25.7434 244.398 26.8862V38.584H239.66L239.652 38.5798Z" fill="#5B5B5B"/>
<path d="M265.18 32.4308C265.18 31.5984 265.368 30.8158 265.736 30.0828C266.104 29.35 266.568 28.7206 267.124 28.1864C267.678 27.6522 268.394 27.1346 269.272 26.6254C270.15 26.116 270.988 25.6978 271.782 25.3664C272.578 25.0352 273.506 24.675 274.57 24.2898L282.48 21.4492V21.2878C282.48 20.8862 282.378 20.4472 282.17 19.971C281.964 19.4948 281.648 19.0062 281.234 18.5052C280.82 18.0042 280.22 17.5901 279.44 17.2547C278.662 16.9234 277.78 16.7578 276.794 16.7578C274.836 16.7578 273.274 17.3789 272.11 18.6211C270.946 19.8634 270.354 21.5776 270.342 23.764H265.462C265.542 20.588 266.602 18.029 268.648 16.0787C270.694 14.1284 273.378 13.1553 276.704 13.1553C279.776 13.1553 282.298 14.0124 284.27 15.735C286.242 17.4576 287.224 19.8137 287.224 22.82V38.584H282.484V31.2548C281.744 33.6108 280.618 35.5198 279.098 36.9774C277.578 38.4348 275.688 39.1596 273.418 39.1596C271.016 39.1596 269.04 38.5052 267.5 37.1926C265.96 35.8842 265.19 34.294 265.19 32.4308H265.18ZM270.2 31.9918C270.2 32.853 270.606 33.6274 271.414 34.3024C272.222 34.9814 273.29 35.321 274.616 35.321C275.942 35.321 277.084 34.9524 278.14 34.2112C279.196 33.47 280.024 32.5508 280.626 31.4494C281.226 30.3478 281.686 29.2422 282 28.1326C282.316 27.0228 282.476 26.0042 282.476 25.0808L275.61 27.5072C273.866 28.1078 272.532 28.7702 271.596 29.4948C270.664 30.2196 270.196 31.0518 270.196 31.9918H270.2Z" fill="#5B5B5B"/>
<path d="M290.656 38.5798V5.42847H295.394V38.5798H290.656Z" fill="#5B5B5B"/>
<path d="M209.404 5.43677H204.086V10.5092H209.404V5.43677Z" fill="#5B5B5B"/>
</g>
<defs>
<clipPath id="clip0_8_34">
<rect width="296" height="48" fill="white"/>
</clipPath>
</defs>
</svg>
